<?xml version="1.0" encoding="UTF-8" standalone="no"?>
<!DOCTYPE svg PUBLIC "-//W3C//DTD SVG 1.1//EN"
 "http://www.w3.org/Graphics/SVG/1.1/DTD/svg11.dtd">
<!-- Generated by graphviz version 2.40.1 (20161225.0304)
 -->
<!-- Title: controllers_diagram Pages: 1 -->
<svg width="2534pt" height="2460pt"
 viewBox="0.00 0.00 2534.41 2459.56" xmlns="http://www.w3.org/2000/svg" xmlns:xlink="http://www.w3.org/1999/xlink">
<g id="graph0" class="graph" transform="scale(1 1) rotate(0) translate(4 2455.5578)">
<title>controllers_diagram</title>
<polygon fill="transparent" stroke="transparent" points="-4,4 -4,-2455.5578 2530.4074,-2455.5578 2530.4074,4 -4,4"/>
<!-- _diagram_info -->
<g id="node1" class="node">
<title>_diagram_info</title>
<text text-anchor="start" x="1624" y="-1376.6" font-family="Times,serif" font-size="13.00" fill="#000000">Controllers diagram</text>
<text text-anchor="start" x="1624" y="-1362.6" font-family="Times,serif" font-size="13.00" fill="#000000">Date: Apr 23 2020 &#45; 19:12</text>
<text text-anchor="start" x="1624" y="-1348.6" font-family="Times,serif" font-size="13.00" fill="#000000">Migration version: 20200423014212</text>
<text text-anchor="start" x="1624" y="-1334.6" font-family="Times,serif" font-size="13.00" fill="#000000">Generated by RailRoady 1.5.3</text>
<text text-anchor="start" x="1624" y="-1320.6" font-family="Times,serif" font-size="13.00" fill="#000000">http://railroady.prestonlee.com</text>
</g>
<!-- Users::ConfirmationsController -->
<g id="node2" class="node">
<title>Users::ConfirmationsController</title>
<path fill="none" stroke="#000000" d="M12,-886.9815C12,-886.9815 177,-886.9815 177,-886.9815 183,-886.9815 189,-892.9815 189,-898.9815 189,-898.9815 189,-968.9815 189,-968.9815 189,-974.9815 183,-980.9815 177,-980.9815 177,-980.9815 12,-980.9815 12,-980.9815 6,-980.9815 0,-974.9815 0,-968.9815 0,-968.9815 0,-898.9815 0,-898.9815 0,-892.9815 6,-886.9815 12,-886.9815"/>
<text text-anchor="middle" x="94.5" y="-965.7815" font-family="Times,serif" font-size="14.00" fill="#000000">Users::ConfirmationsController</text>
<polyline fill="none" stroke="#000000" points="0,-957.9815 189,-957.9815 "/>
<polyline fill="none" stroke="#000000" points="0,-933.9815 189,-933.9815 "/>
<polyline fill="none" stroke="#000000" points="0,-909.9815 189,-909.9815 "/>
<text text-anchor="start" x="8" y="-894.7815" font-family="Times,serif" font-size="14.00" fill="#000000">_layout</text>
</g>
<!-- Users::OmniauthCallbacksController -->
<g id="node3" class="node">
<title>Users::OmniauthCallbacksController</title>
<path fill="none" stroke="#000000" d="M2320.4074,-875.0011C2320.4074,-875.0011 2514.4074,-875.0011 2514.4074,-875.0011 2520.4074,-875.0011 2526.4074,-881.0011 2526.4074,-887.0011 2526.4074,-887.0011 2526.4074,-957.0011 2526.4074,-957.0011 2526.4074,-963.0011 2520.4074,-969.0011 2514.4074,-969.0011 2514.4074,-969.0011 2320.4074,-969.0011 2320.4074,-969.0011 2314.4074,-969.0011 2308.4074,-963.0011 2308.4074,-957.0011 2308.4074,-957.0011 2308.4074,-887.0011 2308.4074,-887.0011 2308.4074,-881.0011 2314.4074,-875.0011 2320.4074,-875.0011"/>
<text text-anchor="middle" x="2417.4074" y="-953.8011" font-family="Times,serif" font-size="14.00" fill="#000000">Users::OmniauthCallbacksController</text>
<polyline fill="none" stroke="#000000" points="2308.4074,-946.0011 2526.4074,-946.0011 "/>
<polyline fill="none" stroke="#000000" points="2308.4074,-922.0011 2526.4074,-922.0011 "/>
<polyline fill="none" stroke="#000000" points="2308.4074,-898.0011 2526.4074,-898.0011 "/>
<text text-anchor="start" x="2316.4074" y="-882.8011" font-family="Times,serif" font-size="14.00" fill="#000000">_layout</text>
</g>
<!-- Users::PasswordsController -->
<g id="node4" class="node">
<title>Users::PasswordsController</title>
<path fill="none" stroke="#000000" d="M947.0129,-65.2011C947.0129,-65.2011 1090.0129,-65.2011 1090.0129,-65.2011 1096.0129,-65.2011 1102.0129,-71.2011 1102.0129,-77.2011 1102.0129,-77.2011 1102.0129,-147.2011 1102.0129,-147.2011 1102.0129,-153.2011 1096.0129,-159.2011 1090.0129,-159.2011 1090.0129,-159.2011 947.0129,-159.2011 947.0129,-159.2011 941.0129,-159.2011 935.0129,-153.2011 935.0129,-147.2011 935.0129,-147.2011 935.0129,-77.2011 935.0129,-77.2011 935.0129,-71.2011 941.0129,-65.2011 947.0129,-65.2011"/>
<text text-anchor="middle" x="1018.5129" y="-144.0011" font-family="Times,serif" font-size="14.00" fill="#000000">Users::PasswordsController</text>
<polyline fill="none" stroke="#000000" points="935.0129,-136.2011 1102.0129,-136.2011 "/>
<polyline fill="none" stroke="#000000" points="935.0129,-112.2011 1102.0129,-112.2011 "/>
<polyline fill="none" stroke="#000000" points="935.0129,-88.2011 1102.0129,-88.2011 "/>
<text text-anchor="start" x="943.0129" y="-73.0011" font-family="Times,serif" font-size="14.00" fill="#000000">_layout</text>
</g>
<!-- Users::UnlocksController -->
<g id="node5" class="node">
<title>Users::UnlocksController</title>
<path fill="none" stroke="#000000" d="M259.7851,-1908.4967C259.7851,-1908.4967 390.7851,-1908.4967 390.7851,-1908.4967 396.7851,-1908.4967 402.7851,-1914.4967 402.7851,-1920.4967 402.7851,-1920.4967 402.7851,-1990.4967 402.7851,-1990.4967 402.7851,-1996.4967 396.7851,-2002.4967 390.7851,-2002.4967 390.7851,-2002.4967 259.7851,-2002.4967 259.7851,-2002.4967 253.7851,-2002.4967 247.7851,-1996.4967 247.7851,-1990.4967 247.7851,-1990.4967 247.7851,-1920.4967 247.7851,-1920.4967 247.7851,-1914.4967 253.7851,-1908.4967 259.7851,-1908.4967"/>
<text text-anchor="middle" x="325.2851" y="-1987.2967" font-family="Times,serif" font-size="14.00" fill="#000000">Users::UnlocksController</text>
<polyline fill="none" stroke="#000000" points="247.7851,-1979.4967 402.7851,-1979.4967 "/>
<polyline fill="none" stroke="#000000" points="247.7851,-1955.4967 402.7851,-1955.4967 "/>
<polyline fill="none" stroke="#000000" points="247.7851,-1931.4967 402.7851,-1931.4967 "/>
<text text-anchor="start" x="255.7851" y="-1916.2967" font-family="Times,serif" font-size="14.00" fill="#000000">_layout</text>
</g>
<!-- Users::SessionsController -->
<g id="node6" class="node">
<title>Users::SessionsController</title>
<path fill="none" stroke="#000000" d="M2134.0862,-1895.8236C2134.0862,-1895.8236 2267.0862,-1895.8236 2267.0862,-1895.8236 2273.0862,-1895.8236 2279.0862,-1901.8236 2279.0862,-1907.8236 2279.0862,-1907.8236 2279.0862,-1977.8236 2279.0862,-1977.8236 2279.0862,-1983.8236 2273.0862,-1989.8236 2267.0862,-1989.8236 2267.0862,-1989.8236 2134.0862,-1989.8236 2134.0862,-1989.8236 2128.0862,-1989.8236 2122.0862,-1983.8236 2122.0862,-1977.8236 2122.0862,-1977.8236 2122.0862,-1907.8236 2122.0862,-1907.8236 2122.0862,-1901.8236 2128.0862,-1895.8236 2134.0862,-1895.8236"/>
<text text-anchor="middle" x="2200.5862" y="-1974.6236" font-family="Times,serif" font-size="14.00" fill="#000000">Users::SessionsController</text>
<polyline fill="none" stroke="#000000" points="2122.0862,-1966.8236 2279.0862,-1966.8236 "/>
<polyline fill="none" stroke="#000000" points="2122.0862,-1942.8236 2279.0862,-1942.8236 "/>
<polyline fill="none" stroke="#000000" points="2122.0862,-1918.8236 2279.0862,-1918.8236 "/>
<text text-anchor="start" x="2130.0862" y="-1903.6236" font-family="Times,serif" font-size="14.00" fill="#000000">_layout</text>
</g>
<!-- Users::RegistrationsController -->
<g id="node7" class="node">
<title>Users::RegistrationsController</title>
<path fill="none" stroke="#000000" d="M1180.5166,-2358.0578C1180.5166,-2358.0578 1338.5166,-2358.0578 1338.5166,-2358.0578 1344.5166,-2358.0578 1350.5166,-2364.0578 1350.5166,-2370.0578 1350.5166,-2370.0578 1350.5166,-2439.0578 1350.5166,-2439.0578 1350.5166,-2445.0578 1344.5166,-2451.0578 1338.5166,-2451.0578 1338.5166,-2451.0578 1180.5166,-2451.0578 1180.5166,-2451.0578 1174.5166,-2451.0578 1168.5166,-2445.0578 1168.5166,-2439.0578 1168.5166,-2439.0578 1168.5166,-2370.0578 1168.5166,-2370.0578 1168.5166,-2364.0578 1174.5166,-2358.0578 1180.5166,-2358.0578"/>
<text text-anchor="middle" x="1259.5166" y="-2435.8578" font-family="Times,serif" font-size="14.00" fill="#000000">Users::RegistrationsController</text>
<polyline fill="none" stroke="#000000" points="1168.5166,-2428.0578 1350.5166,-2428.0578 "/>
<text text-anchor="start" x="1176.5166" y="-2412.8578" font-family="Times,serif" font-size="14.00" fill="#000000">configure_sign_up_params</text>
<polyline fill="none" stroke="#000000" points="1168.5166,-2405.0578 1350.5166,-2405.0578 "/>
<polyline fill="none" stroke="#000000" points="1168.5166,-2381.0578 1350.5166,-2381.0578 "/>
<text text-anchor="start" x="1176.5166" y="-2365.8578" font-family="Times,serif" font-size="14.00" fill="#000000">_layout</text>
</g>
<!-- ApplicationController -->
<g id="node8" class="node">
<title>ApplicationController</title>
<path fill="none" stroke="#000000" d="M1083.6165,-618.4747C1083.6165,-618.4747 1195.6165,-618.4747 1195.6165,-618.4747 1201.6165,-618.4747 1207.6165,-624.4747 1207.6165,-630.4747 1207.6165,-630.4747 1207.6165,-700.4747 1207.6165,-700.4747 1207.6165,-706.4747 1201.6165,-712.4747 1195.6165,-712.4747 1195.6165,-712.4747 1083.6165,-712.4747 1083.6165,-712.4747 1077.6165,-712.4747 1071.6165,-706.4747 1071.6165,-700.4747 1071.6165,-700.4747 1071.6165,-630.4747 1071.6165,-630.4747 1071.6165,-624.4747 1077.6165,-618.4747 1083.6165,-618.4747"/>
<text text-anchor="middle" x="1139.6165" y="-697.2747" font-family="Times,serif" font-size="14.00" fill="#000000">ApplicationController</text>
<polyline fill="none" stroke="#000000" points="1071.6165,-689.4747 1207.6165,-689.4747 "/>
<polyline fill="none" stroke="#000000" points="1071.6165,-665.4747 1207.6165,-665.4747 "/>
<polyline fill="none" stroke="#000000" points="1071.6165,-641.4747 1207.6165,-641.4747 "/>
<text text-anchor="start" x="1079.6165" y="-626.2747" font-family="Times,serif" font-size="14.00" fill="#000000">_layout</text>
</g>
<!-- TweetsController -->
<g id="node9" class="node">
<title>TweetsController</title>
<path fill="none" stroke="#000000" d="M1457.6184,-.5C1457.6184,-.5 1544.6184,-.5 1544.6184,-.5 1550.6184,-.5 1556.6184,-6.5 1556.6184,-12.5 1556.6184,-12.5 1556.6184,-201.5 1556.6184,-201.5 1556.6184,-207.5 1550.6184,-213.5 1544.6184,-213.5 1544.6184,-213.5 1457.6184,-213.5 1457.6184,-213.5 1451.6184,-213.5 1445.6184,-207.5 1445.6184,-201.5 1445.6184,-201.5 1445.6184,-12.5 1445.6184,-12.5 1445.6184,-6.5 1451.6184,-.5 1457.6184,-.5"/>
<text text-anchor="middle" x="1501.1184" y="-198.3" font-family="Times,serif" font-size="14.00" fill="#000000">TweetsController</text>
<polyline fill="none" stroke="#000000" points="1445.6184,-190.5 1556.6184,-190.5 "/>
<text text-anchor="start" x="1453.6184" y="-175.3" font-family="Times,serif" font-size="14.00" fill="#000000">create</text>
<text text-anchor="start" x="1453.6184" y="-160.3" font-family="Times,serif" font-size="14.00" fill="#000000">destroy</text>
<text text-anchor="start" x="1453.6184" y="-145.3" font-family="Times,serif" font-size="14.00" fill="#000000">edit</text>
<text text-anchor="start" x="1453.6184" y="-130.3" font-family="Times,serif" font-size="14.00" fill="#000000">index</text>
<text text-anchor="start" x="1453.6184" y="-115.3" font-family="Times,serif" font-size="14.00" fill="#000000">new</text>
<text text-anchor="start" x="1453.6184" y="-100.3" font-family="Times,serif" font-size="14.00" fill="#000000">show</text>
<text text-anchor="start" x="1453.6184" y="-85.3" font-family="Times,serif" font-size="14.00" fill="#000000">update</text>
<polyline fill="none" stroke="#000000" points="1445.6184,-77.5 1556.6184,-77.5 "/>
<polyline fill="none" stroke="#000000" points="1445.6184,-53.5 1556.6184,-53.5 "/>
<text text-anchor="start" x="1453.6184" y="-38.3" font-family="Times,serif" font-size="14.00" fill="#000000">_layout</text>
<text text-anchor="start" x="1453.6184" y="-23.3" font-family="Times,serif" font-size="14.00" fill="#000000">set_tweet</text>
<text text-anchor="start" x="1453.6184" y="-8.3" font-family="Times,serif" font-size="14.00" fill="#000000">tweet_params</text>
</g>
<!-- ApplicationController&#45;&gt;TweetsController -->
<g id="edge7" class="edge">
<title>ApplicationController&#45;&gt;TweetsController</title>
<path fill="none" stroke="#000000" d="M1170.1264,-618.3408C1230.9805,-524.3289 1368.2254,-312.303 1445.5136,-192.9025"/>
</g>
<!-- DeviseController -->
<g id="node21" class="node">
<title>DeviseController</title>
<path fill="none" stroke="#000000" d="M1173.3786,-1039.319C1173.3786,-1039.319 1340.3786,-1039.319 1340.3786,-1039.319 1346.3786,-1039.319 1352.3786,-1045.319 1352.3786,-1051.319 1352.3786,-1051.319 1352.3786,-1419.319 1352.3786,-1419.319 1352.3786,-1425.319 1346.3786,-1431.319 1340.3786,-1431.319 1340.3786,-1431.319 1173.3786,-1431.319 1173.3786,-1431.319 1167.3786,-1431.319 1161.3786,-1425.319 1161.3786,-1419.319 1161.3786,-1419.319 1161.3786,-1051.319 1161.3786,-1051.319 1161.3786,-1045.319 1167.3786,-1039.319 1173.3786,-1039.319"/>
<text text-anchor="middle" x="1256.8786" y="-1416.119" font-family="Times,serif" font-size="14.00" fill="#000000">DeviseController</text>
<polyline fill="none" stroke="#000000" points="1161.3786,-1408.319 1352.3786,-1408.319 "/>
<text text-anchor="start" x="1169.3786" y="-1393.119" font-family="Times,serif" font-size="14.00" fill="#000000">_prefixes</text>
<polyline fill="none" stroke="#000000" points="1161.3786,-1385.319 1352.3786,-1385.319 "/>
<text text-anchor="start" x="1169.3786" y="-1370.119" font-family="Times,serif" font-size="14.00" fill="#000000">assert_is_devise_resource!</text>
<text text-anchor="start" x="1169.3786" y="-1355.119" font-family="Times,serif" font-size="14.00" fill="#000000">clean_up_passwords</text>
<text text-anchor="start" x="1169.3786" y="-1340.119" font-family="Times,serif" font-size="14.00" fill="#000000">devise_i18n_options</text>
<text text-anchor="start" x="1169.3786" y="-1325.119" font-family="Times,serif" font-size="14.00" fill="#000000">devise_mapping</text>
<text text-anchor="start" x="1169.3786" y="-1310.119" font-family="Times,serif" font-size="14.00" fill="#000000">find_message</text>
<text text-anchor="start" x="1169.3786" y="-1295.119" font-family="Times,serif" font-size="14.00" fill="#000000">navigational_formats</text>
<text text-anchor="start" x="1169.3786" y="-1280.119" font-family="Times,serif" font-size="14.00" fill="#000000">require_no_authentication</text>
<text text-anchor="start" x="1169.3786" y="-1265.119" font-family="Times,serif" font-size="14.00" fill="#000000">resource</text>
<text text-anchor="start" x="1169.3786" y="-1250.119" font-family="Times,serif" font-size="14.00" fill="#000000">resource=</text>
<text text-anchor="start" x="1169.3786" y="-1235.119" font-family="Times,serif" font-size="14.00" fill="#000000">resource_class</text>
<text text-anchor="start" x="1169.3786" y="-1220.119" font-family="Times,serif" font-size="14.00" fill="#000000">resource_name</text>
<text text-anchor="start" x="1169.3786" y="-1205.119" font-family="Times,serif" font-size="14.00" fill="#000000">resource_params</text>
<text text-anchor="start" x="1169.3786" y="-1190.119" font-family="Times,serif" font-size="14.00" fill="#000000">respond_with_navigational</text>
<text text-anchor="start" x="1169.3786" y="-1175.119" font-family="Times,serif" font-size="14.00" fill="#000000">scope_name</text>
<text text-anchor="start" x="1169.3786" y="-1160.119" font-family="Times,serif" font-size="14.00" fill="#000000">set_flash_message</text>
<text text-anchor="start" x="1169.3786" y="-1145.119" font-family="Times,serif" font-size="14.00" fill="#000000">set_flash_message!</text>
<text text-anchor="start" x="1169.3786" y="-1130.119" font-family="Times,serif" font-size="14.00" fill="#000000">set_minimum_password_length</text>
<text text-anchor="start" x="1169.3786" y="-1115.119" font-family="Times,serif" font-size="14.00" fill="#000000">signed_in_resource</text>
<text text-anchor="start" x="1169.3786" y="-1100.119" font-family="Times,serif" font-size="14.00" fill="#000000">successfully_sent?</text>
<text text-anchor="start" x="1169.3786" y="-1085.119" font-family="Times,serif" font-size="14.00" fill="#000000">translation_scope</text>
<text text-anchor="start" x="1169.3786" y="-1070.119" font-family="Times,serif" font-size="14.00" fill="#000000">unknown_action!</text>
<polyline fill="none" stroke="#000000" points="1161.3786,-1062.319 1352.3786,-1062.319 "/>
<text text-anchor="start" x="1169.3786" y="-1047.119" font-family="Times,serif" font-size="14.00" fill="#000000">_layout</text>
</g>
<!-- ApplicationController&#45;&gt;DeviseController -->
<g id="edge14" class="edge">
<title>ApplicationController&#45;&gt;DeviseController</title>
<path fill="none" stroke="#000000" d="M1149.3123,-712.5923C1163.9357,-783.6559 1192.4787,-922.3627 1216.4889,-1039.0419"/>
</g>
<!-- ActiveStorage::BaseController -->
<g id="node10" class="node">
<title>ActiveStorage::BaseController</title>
<path fill="none" stroke="#000000" d="M921,-1818.5C921,-1818.5 1080,-1818.5 1080,-1818.5 1086,-1818.5 1092,-1824.5 1092,-1830.5 1092,-1830.5 1092,-1900.5 1092,-1900.5 1092,-1906.5 1086,-1912.5 1080,-1912.5 1080,-1912.5 921,-1912.5 921,-1912.5 915,-1912.5 909,-1906.5 909,-1900.5 909,-1900.5 909,-1830.5 909,-1830.5 909,-1824.5 915,-1818.5 921,-1818.5"/>
<text text-anchor="middle" x="1000.5" y="-1897.3" font-family="Times,serif" font-size="14.00" fill="#000000">ActiveStorage::BaseController</text>
<polyline fill="none" stroke="#000000" points="909,-1889.5 1092,-1889.5 "/>
<polyline fill="none" stroke="#000000" points="909,-1865.5 1092,-1865.5 "/>
<polyline fill="none" stroke="#000000" points="909,-1841.5 1092,-1841.5 "/>
<text text-anchor="start" x="917" y="-1826.3" font-family="Times,serif" font-size="14.00" fill="#000000">_layout</text>
</g>
<!-- ActiveStorage::DiskController -->
<g id="node11" class="node">
<title>ActiveStorage::DiskController</title>
<path fill="none" stroke="#000000" d="M2032,-1313.5C2032,-1313.5 2190,-1313.5 2190,-1313.5 2196,-1313.5 2202,-1319.5 2202,-1325.5 2202,-1325.5 2202,-1484.5 2202,-1484.5 2202,-1490.5 2196,-1496.5 2190,-1496.5 2190,-1496.5 2032,-1496.5 2032,-1496.5 2026,-1496.5 2020,-1490.5 2020,-1484.5 2020,-1484.5 2020,-1325.5 2020,-1325.5 2020,-1319.5 2026,-1313.5 2032,-1313.5"/>
<text text-anchor="middle" x="2111" y="-1481.3" font-family="Times,serif" font-size="14.00" fill="#000000">ActiveStorage::DiskController</text>
<polyline fill="none" stroke="#000000" points="2020,-1473.5 2202,-1473.5 "/>
<text text-anchor="start" x="2028" y="-1458.3" font-family="Times,serif" font-size="14.00" fill="#000000">show</text>
<text text-anchor="start" x="2028" y="-1443.3" font-family="Times,serif" font-size="14.00" fill="#000000">update</text>
<polyline fill="none" stroke="#000000" points="2020,-1435.5 2202,-1435.5 "/>
<polyline fill="none" stroke="#000000" points="2020,-1411.5 2202,-1411.5 "/>
<text text-anchor="start" x="2028" y="-1396.3" font-family="Times,serif" font-size="14.00" fill="#000000">_layout</text>
<text text-anchor="start" x="2028" y="-1381.3" font-family="Times,serif" font-size="14.00" fill="#000000">acceptable_content?</text>
<text text-anchor="start" x="2028" y="-1366.3" font-family="Times,serif" font-size="14.00" fill="#000000">decode_verified_key</text>
<text text-anchor="start" x="2028" y="-1351.3" font-family="Times,serif" font-size="14.00" fill="#000000">decode_verified_token</text>
<text text-anchor="start" x="2028" y="-1336.3" font-family="Times,serif" font-size="14.00" fill="#000000">disk_service</text>
<text text-anchor="start" x="2028" y="-1321.3" font-family="Times,serif" font-size="14.00" fill="#000000">serve_file</text>
</g>
<!-- ActiveStorage::RepresentationsController -->
<g id="node12" class="node">
<title>ActiveStorage::RepresentationsController</title>
<path fill="none" stroke="#000000" d="M1729,-707.5C1729,-707.5 1948,-707.5 1948,-707.5 1954,-707.5 1960,-713.5 1960,-719.5 1960,-719.5 1960,-788.5 1960,-788.5 1960,-794.5 1954,-800.5 1948,-800.5 1948,-800.5 1729,-800.5 1729,-800.5 1723,-800.5 1717,-794.5 1717,-788.5 1717,-788.5 1717,-719.5 1717,-719.5 1717,-713.5 1723,-707.5 1729,-707.5"/>
<text text-anchor="middle" x="1838.5" y="-785.3" font-family="Times,serif" font-size="14.00" fill="#000000">ActiveStorage::RepresentationsController</text>
<polyline fill="none" stroke="#000000" points="1717,-777.5 1960,-777.5 "/>
<text text-anchor="start" x="1725" y="-762.3" font-family="Times,serif" font-size="14.00" fill="#000000">show</text>
<polyline fill="none" stroke="#000000" points="1717,-754.5 1960,-754.5 "/>
<polyline fill="none" stroke="#000000" points="1717,-730.5 1960,-730.5 "/>
<text text-anchor="start" x="1725" y="-715.3" font-family="Times,serif" font-size="14.00" fill="#000000">_layout</text>
</g>
<!-- ActiveStorage::BlobsController -->
<g id="node13" class="node">
<title>ActiveStorage::BlobsController</title>
<path fill="none" stroke="#000000" d="M820,-707.5C820,-707.5 984,-707.5 984,-707.5 990,-707.5 996,-713.5 996,-719.5 996,-719.5 996,-788.5 996,-788.5 996,-794.5 990,-800.5 984,-800.5 984,-800.5 820,-800.5 820,-800.5 814,-800.5 808,-794.5 808,-788.5 808,-788.5 808,-719.5 808,-719.5 808,-713.5 814,-707.5 820,-707.5"/>
<text text-anchor="middle" x="902" y="-785.3" font-family="Times,serif" font-size="14.00" fill="#000000">ActiveStorage::BlobsController</text>
<polyline fill="none" stroke="#000000" points="808,-777.5 996,-777.5 "/>
<text text-anchor="start" x="816" y="-762.3" font-family="Times,serif" font-size="14.00" fill="#000000">show</text>
<polyline fill="none" stroke="#000000" points="808,-754.5 996,-754.5 "/>
<polyline fill="none" stroke="#000000" points="808,-730.5 996,-730.5 "/>
<text text-anchor="start" x="816" y="-715.3" font-family="Times,serif" font-size="14.00" fill="#000000">_layout</text>
</g>
<!-- ActiveStorage::DirectUploadsController -->
<g id="node14" class="node">
<title>ActiveStorage::DirectUploadsController</title>
<path fill="none" stroke="#000000" d="M1628,-1818.5C1628,-1818.5 1840,-1818.5 1840,-1818.5 1846,-1818.5 1852,-1824.5 1852,-1830.5 1852,-1830.5 1852,-1929.5 1852,-1929.5 1852,-1935.5 1846,-1941.5 1840,-1941.5 1840,-1941.5 1628,-1941.5 1628,-1941.5 1622,-1941.5 1616,-1935.5 1616,-1929.5 1616,-1929.5 1616,-1830.5 1616,-1830.5 1616,-1824.5 1622,-1818.5 1628,-1818.5"/>
<text text-anchor="middle" x="1734" y="-1926.3" font-family="Times,serif" font-size="14.00" fill="#000000">ActiveStorage::DirectUploadsController</text>
<polyline fill="none" stroke="#000000" points="1616,-1918.5 1852,-1918.5 "/>
<text text-anchor="start" x="1624" y="-1903.3" font-family="Times,serif" font-size="14.00" fill="#000000">create</text>
<polyline fill="none" stroke="#000000" points="1616,-1895.5 1852,-1895.5 "/>
<polyline fill="none" stroke="#000000" points="1616,-1871.5 1852,-1871.5 "/>
<text text-anchor="start" x="1624" y="-1856.3" font-family="Times,serif" font-size="14.00" fill="#000000">_layout</text>
<text text-anchor="start" x="1624" y="-1841.3" font-family="Times,serif" font-size="14.00" fill="#000000">blob_args</text>
<text text-anchor="start" x="1624" y="-1826.3" font-family="Times,serif" font-size="14.00" fill="#000000">direct_upload_json</text>
</g>
<!-- Devise::ConfirmationsController -->
<g id="node15" class="node">
<title>Devise::ConfirmationsController</title>
<path fill="none" stroke="#000000" d="M519.9332,-1001.9219C519.9332,-1001.9219 795.9332,-1001.9219 795.9332,-1001.9219 801.9332,-1001.9219 807.9332,-1007.9219 807.9332,-1013.9219 807.9332,-1013.9219 807.9332,-1141.9219 807.9332,-1141.9219 807.9332,-1147.9219 801.9332,-1153.9219 795.9332,-1153.9219 795.9332,-1153.9219 519.9332,-1153.9219 519.9332,-1153.9219 513.9332,-1153.9219 507.9332,-1147.9219 507.9332,-1141.9219 507.9332,-1141.9219 507.9332,-1013.9219 507.9332,-1013.9219 507.9332,-1007.9219 513.9332,-1001.9219 519.9332,-1001.9219"/>
<text text-anchor="middle" x="657.9332" y="-1138.7219" font-family="Times,serif" font-size="14.00" fill="#000000">Devise::ConfirmationsController</text>
<polyline fill="none" stroke="#000000" points="507.9332,-1130.9219 807.9332,-1130.9219 "/>
<text text-anchor="start" x="515.9332" y="-1115.7219" font-family="Times,serif" font-size="14.00" fill="#000000">create</text>
<text text-anchor="start" x="515.9332" y="-1100.7219" font-family="Times,serif" font-size="14.00" fill="#000000">new</text>
<text text-anchor="start" x="515.9332" y="-1085.7219" font-family="Times,serif" font-size="14.00" fill="#000000">show</text>
<polyline fill="none" stroke="#000000" points="507.9332,-1077.9219 807.9332,-1077.9219 "/>
<text text-anchor="start" x="515.9332" y="-1062.7219" font-family="Times,serif" font-size="14.00" fill="#000000">after_confirmation_path_for</text>
<text text-anchor="start" x="515.9332" y="-1047.7219" font-family="Times,serif" font-size="14.00" fill="#000000">after_resending_confirmation_instructions_path_for</text>
<text text-anchor="start" x="515.9332" y="-1032.7219" font-family="Times,serif" font-size="14.00" fill="#000000">translation_scope</text>
<polyline fill="none" stroke="#000000" points="507.9332,-1024.9219 807.9332,-1024.9219 "/>
<text text-anchor="start" x="515.9332" y="-1009.7219" font-family="Times,serif" font-size="14.00" fill="#000000">_layout</text>
</g>
<!-- Devise::ConfirmationsController&#45;&gt;Users::ConfirmationsController -->
<g id="edge1" class="edge">
<title>Devise::ConfirmationsController&#45;&gt;Users::ConfirmationsController</title>
<path fill="none" stroke="#000000" d="M507.6836,-1039.5376C406.4625,-1013.6786 276.0526,-980.3627 189.0833,-958.1447"/>
</g>
<!-- Devise::OmniauthCallbacksController -->
<g id="node16" class="node">
<title>Devise::OmniauthCallbacksController</title>
<path fill="none" stroke="#000000" d="M1754.1121,-993.6353C1754.1121,-993.6353 1955.1121,-993.6353 1955.1121,-993.6353 1961.1121,-993.6353 1967.1121,-999.6353 1967.1121,-1005.6353 1967.1121,-1005.6353 1967.1121,-1133.6353 1967.1121,-1133.6353 1967.1121,-1139.6353 1961.1121,-1145.6353 1955.1121,-1145.6353 1955.1121,-1145.6353 1754.1121,-1145.6353 1754.1121,-1145.6353 1748.1121,-1145.6353 1742.1121,-1139.6353 1742.1121,-1133.6353 1742.1121,-1133.6353 1742.1121,-1005.6353 1742.1121,-1005.6353 1742.1121,-999.6353 1748.1121,-993.6353 1754.1121,-993.6353"/>
<text text-anchor="middle" x="1854.6121" y="-1130.4353" font-family="Times,serif" font-size="14.00" fill="#000000">Devise::OmniauthCallbacksController</text>
<polyline fill="none" stroke="#000000" points="1742.1121,-1122.6353 1967.1121,-1122.6353 "/>
<text text-anchor="start" x="1750.1121" y="-1107.4353" font-family="Times,serif" font-size="14.00" fill="#000000">failure</text>
<text text-anchor="start" x="1750.1121" y="-1092.4353" font-family="Times,serif" font-size="14.00" fill="#000000">passthru</text>
<polyline fill="none" stroke="#000000" points="1742.1121,-1084.6353 1967.1121,-1084.6353 "/>
<text text-anchor="start" x="1750.1121" y="-1069.4353" font-family="Times,serif" font-size="14.00" fill="#000000">after_omniauth_failure_path_for</text>
<text text-anchor="start" x="1750.1121" y="-1054.4353" font-family="Times,serif" font-size="14.00" fill="#000000">failed_strategy</text>
<text text-anchor="start" x="1750.1121" y="-1039.4353" font-family="Times,serif" font-size="14.00" fill="#000000">failure_message</text>
<text text-anchor="start" x="1750.1121" y="-1024.4353" font-family="Times,serif" font-size="14.00" fill="#000000">translation_scope</text>
<polyline fill="none" stroke="#000000" points="1742.1121,-1016.6353 1967.1121,-1016.6353 "/>
<text text-anchor="start" x="1750.1121" y="-1001.4353" font-family="Times,serif" font-size="14.00" fill="#000000">_layout</text>
</g>
<!-- Devise::OmniauthCallbacksController&#45;&gt;Users::OmniauthCallbacksController -->
<g id="edge2" class="edge">
<title>Devise::OmniauthCallbacksController&#45;&gt;Users::OmniauthCallbacksController</title>
<path fill="none" stroke="#000000" d="M1967.1495,-1040.1142C2066.2697,-1014.1127 2209.7467,-976.4753 2307.9377,-950.7176"/>
</g>
<!-- Devise::PasswordsController -->
<g id="node17" class="node">
<title>Devise::PasswordsController</title>
<path fill="none" stroke="#000000" d="M1227.6392,-587.5552C1227.6392,-587.5552 1505.6392,-587.5552 1505.6392,-587.5552 1511.6392,-587.5552 1517.6392,-593.5552 1517.6392,-599.5552 1517.6392,-599.5552 1517.6392,-772.5552 1517.6392,-772.5552 1517.6392,-778.5552 1511.6392,-784.5552 1505.6392,-784.5552 1505.6392,-784.5552 1227.6392,-784.5552 1227.6392,-784.5552 1221.6392,-784.5552 1215.6392,-778.5552 1215.6392,-772.5552 1215.6392,-772.5552 1215.6392,-599.5552 1215.6392,-599.5552 1215.6392,-593.5552 1221.6392,-587.5552 1227.6392,-587.5552"/>
<text text-anchor="middle" x="1366.6392" y="-769.3552" font-family="Times,serif" font-size="14.00" fill="#000000">Devise::PasswordsController</text>
<polyline fill="none" stroke="#000000" points="1215.6392,-761.5552 1517.6392,-761.5552 "/>
<text text-anchor="start" x="1223.6392" y="-746.3552" font-family="Times,serif" font-size="14.00" fill="#000000">create</text>
<text text-anchor="start" x="1223.6392" y="-731.3552" font-family="Times,serif" font-size="14.00" fill="#000000">edit</text>
<text text-anchor="start" x="1223.6392" y="-716.3552" font-family="Times,serif" font-size="14.00" fill="#000000">new</text>
<text text-anchor="start" x="1223.6392" y="-701.3552" font-family="Times,serif" font-size="14.00" fill="#000000">update</text>
<polyline fill="none" stroke="#000000" points="1215.6392,-693.5552 1517.6392,-693.5552 "/>
<text text-anchor="start" x="1223.6392" y="-678.3552" font-family="Times,serif" font-size="14.00" fill="#000000">after_resetting_password_path_for</text>
<text text-anchor="start" x="1223.6392" y="-663.3552" font-family="Times,serif" font-size="14.00" fill="#000000">after_sending_reset_password_instructions_path_for</text>
<text text-anchor="start" x="1223.6392" y="-648.3552" font-family="Times,serif" font-size="14.00" fill="#000000">assert_reset_token_passed</text>
<text text-anchor="start" x="1223.6392" y="-633.3552" font-family="Times,serif" font-size="14.00" fill="#000000">translation_scope</text>
<text text-anchor="start" x="1223.6392" y="-618.3552" font-family="Times,serif" font-size="14.00" fill="#000000">unlockable?</text>
<polyline fill="none" stroke="#000000" points="1215.6392,-610.5552 1517.6392,-610.5552 "/>
<text text-anchor="start" x="1223.6392" y="-595.3552" font-family="Times,serif" font-size="14.00" fill="#000000">_layout</text>
</g>
<!-- Devise::PasswordsController&#45;&gt;Users::PasswordsController -->
<g id="edge3" class="edge">
<title>Devise::PasswordsController&#45;&gt;Users::PasswordsController</title>
<path fill="none" stroke="#000000" d="M1306.7942,-587.4062C1231.0741,-462.5886 1103.7243,-252.6642 1047.1199,-159.3572"/>
</g>
<!-- Devise::UnlocksController -->
<g id="node18" class="node">
<title>Devise::UnlocksController</title>
<path fill="none" stroke="#000000" d="M664.7428,-1515.9013C664.7428,-1515.9013 896.7428,-1515.9013 896.7428,-1515.9013 902.7428,-1515.9013 908.7428,-1521.9013 908.7428,-1527.9013 908.7428,-1527.9013 908.7428,-1655.9013 908.7428,-1655.9013 908.7428,-1661.9013 902.7428,-1667.9013 896.7428,-1667.9013 896.7428,-1667.9013 664.7428,-1667.9013 664.7428,-1667.9013 658.7428,-1667.9013 652.7428,-1661.9013 652.7428,-1655.9013 652.7428,-1655.9013 652.7428,-1527.9013 652.7428,-1527.9013 652.7428,-1521.9013 658.7428,-1515.9013 664.7428,-1515.9013"/>
<text text-anchor="middle" x="780.7428" y="-1652.7013" font-family="Times,serif" font-size="14.00" fill="#000000">Devise::UnlocksController</text>
<polyline fill="none" stroke="#000000" points="652.7428,-1644.9013 908.7428,-1644.9013 "/>
<text text-anchor="start" x="660.7428" y="-1629.7013" font-family="Times,serif" font-size="14.00" fill="#000000">create</text>
<text text-anchor="start" x="660.7428" y="-1614.7013" font-family="Times,serif" font-size="14.00" fill="#000000">new</text>
<text text-anchor="start" x="660.7428" y="-1599.7013" font-family="Times,serif" font-size="14.00" fill="#000000">show</text>
<polyline fill="none" stroke="#000000" points="652.7428,-1591.9013 908.7428,-1591.9013 "/>
<text text-anchor="start" x="660.7428" y="-1576.7013" font-family="Times,serif" font-size="14.00" fill="#000000">after_sending_unlock_instructions_path_for</text>
<text text-anchor="start" x="660.7428" y="-1561.7013" font-family="Times,serif" font-size="14.00" fill="#000000">after_unlock_path_for</text>
<text text-anchor="start" x="660.7428" y="-1546.7013" font-family="Times,serif" font-size="14.00" fill="#000000">translation_scope</text>
<polyline fill="none" stroke="#000000" points="652.7428,-1538.9013 908.7428,-1538.9013 "/>
<text text-anchor="start" x="660.7428" y="-1523.7013" font-family="Times,serif" font-size="14.00" fill="#000000">_layout</text>
</g>
<!-- Devise::UnlocksController&#45;&gt;Users::UnlocksController -->
<g id="edge4" class="edge">
<title>Devise::UnlocksController&#45;&gt;Users::UnlocksController</title>
<path fill="none" stroke="#000000" d="M685.5413,-1667.9014C594.6601,-1740.4526 460.5901,-1847.4817 384.2309,-1908.4398"/>
</g>
<!-- Devise::SessionsController -->
<g id="node19" class="node">
<title>Devise::SessionsController</title>
<path fill="none" stroke="#000000" d="M1670.4067,-1478.9135C1670.4067,-1478.9135 1810.4067,-1478.9135 1810.4067,-1478.9135 1816.4067,-1478.9135 1822.4067,-1484.9135 1822.4067,-1490.9135 1822.4067,-1490.9135 1822.4067,-1678.9135 1822.4067,-1678.9135 1822.4067,-1684.9135 1816.4067,-1690.9135 1810.4067,-1690.9135 1810.4067,-1690.9135 1670.4067,-1690.9135 1670.4067,-1690.9135 1664.4067,-1690.9135 1658.4067,-1684.9135 1658.4067,-1678.9135 1658.4067,-1678.9135 1658.4067,-1490.9135 1658.4067,-1490.9135 1658.4067,-1484.9135 1664.4067,-1478.9135 1670.4067,-1478.9135"/>
<text text-anchor="middle" x="1740.4067" y="-1675.7135" font-family="Times,serif" font-size="14.00" fill="#000000">Devise::SessionsController</text>
<polyline fill="none" stroke="#000000" points="1658.4067,-1667.9135 1822.4067,-1667.9135 "/>
<text text-anchor="start" x="1666.4067" y="-1652.7135" font-family="Times,serif" font-size="14.00" fill="#000000">create</text>
<text text-anchor="start" x="1666.4067" y="-1637.7135" font-family="Times,serif" font-size="14.00" fill="#000000">destroy</text>
<text text-anchor="start" x="1666.4067" y="-1622.7135" font-family="Times,serif" font-size="14.00" fill="#000000">new</text>
<polyline fill="none" stroke="#000000" points="1658.4067,-1614.9135 1822.4067,-1614.9135 "/>
<text text-anchor="start" x="1666.4067" y="-1599.7135" font-family="Times,serif" font-size="14.00" fill="#000000">auth_options</text>
<text text-anchor="start" x="1666.4067" y="-1584.7135" font-family="Times,serif" font-size="14.00" fill="#000000">serialize_options</text>
<text text-anchor="start" x="1666.4067" y="-1569.7135" font-family="Times,serif" font-size="14.00" fill="#000000">sign_in_params</text>
<text text-anchor="start" x="1666.4067" y="-1554.7135" font-family="Times,serif" font-size="14.00" fill="#000000">translation_scope</text>
<polyline fill="none" stroke="#000000" points="1658.4067,-1546.9135 1822.4067,-1546.9135 "/>
<text text-anchor="start" x="1666.4067" y="-1531.7135" font-family="Times,serif" font-size="14.00" fill="#000000">_layout</text>
<text text-anchor="start" x="1666.4067" y="-1516.7135" font-family="Times,serif" font-size="14.00" fill="#000000">all_signed_out?</text>
<text text-anchor="start" x="1666.4067" y="-1501.7135" font-family="Times,serif" font-size="14.00" fill="#000000">respond_to_on_destroy</text>
<text text-anchor="start" x="1666.4067" y="-1486.7135" font-family="Times,serif" font-size="14.00" fill="#000000">verify_signed_out_user</text>
</g>
<!-- Devise::SessionsController&#45;&gt;Users::SessionsController -->
<g id="edge5" class="edge">
<title>Devise::SessionsController&#45;&gt;Users::SessionsController</title>
<path fill="none" stroke="#000000" d="M1822.4123,-1648.6944C1913.4983,-1719.5376 2058.4176,-1832.2503 2139.8695,-1895.6004"/>
</g>
<!-- Devise::RegistrationsController -->
<g id="node20" class="node">
<title>Devise::RegistrationsController</title>
<path fill="none" stroke="#000000" d="M1176.5293,-1649.0796C1176.5293,-1649.0796 1349.5293,-1649.0796 1349.5293,-1649.0796 1355.5293,-1649.0796 1361.5293,-1655.0796 1361.5293,-1661.0796 1361.5293,-1661.0796 1361.5293,-1984.0796 1361.5293,-1984.0796 1361.5293,-1990.0796 1355.5293,-1996.0796 1349.5293,-1996.0796 1349.5293,-1996.0796 1176.5293,-1996.0796 1176.5293,-1996.0796 1170.5293,-1996.0796 1164.5293,-1990.0796 1164.5293,-1984.0796 1164.5293,-1984.0796 1164.5293,-1661.0796 1164.5293,-1661.0796 1164.5293,-1655.0796 1170.5293,-1649.0796 1176.5293,-1649.0796"/>
<text text-anchor="middle" x="1263.0293" y="-1980.8796" font-family="Times,serif" font-size="14.00" fill="#000000">Devise::RegistrationsController</text>
<polyline fill="none" stroke="#000000" points="1164.5293,-1973.0796 1361.5293,-1973.0796 "/>
<text text-anchor="start" x="1172.5293" y="-1957.8796" font-family="Times,serif" font-size="14.00" fill="#000000">cancel</text>
<text text-anchor="start" x="1172.5293" y="-1942.8796" font-family="Times,serif" font-size="14.00" fill="#000000">create</text>
<text text-anchor="start" x="1172.5293" y="-1927.8796" font-family="Times,serif" font-size="14.00" fill="#000000">destroy</text>
<text text-anchor="start" x="1172.5293" y="-1912.8796" font-family="Times,serif" font-size="14.00" fill="#000000">edit</text>
<text text-anchor="start" x="1172.5293" y="-1897.8796" font-family="Times,serif" font-size="14.00" fill="#000000">new</text>
<text text-anchor="start" x="1172.5293" y="-1882.8796" font-family="Times,serif" font-size="14.00" fill="#000000">update</text>
<polyline fill="none" stroke="#000000" points="1164.5293,-1875.0796 1361.5293,-1875.0796 "/>
<text text-anchor="start" x="1172.5293" y="-1859.8796" font-family="Times,serif" font-size="14.00" fill="#000000">account_update_params</text>
<text text-anchor="start" x="1172.5293" y="-1844.8796" font-family="Times,serif" font-size="14.00" fill="#000000">after_inactive_sign_up_path_for</text>
<text text-anchor="start" x="1172.5293" y="-1829.8796" font-family="Times,serif" font-size="14.00" fill="#000000">after_sign_up_path_for</text>
<text text-anchor="start" x="1172.5293" y="-1814.8796" font-family="Times,serif" font-size="14.00" fill="#000000">after_update_path_for</text>
<text text-anchor="start" x="1172.5293" y="-1799.8796" font-family="Times,serif" font-size="14.00" fill="#000000">authenticate_scope!</text>
<text text-anchor="start" x="1172.5293" y="-1784.8796" font-family="Times,serif" font-size="14.00" fill="#000000">build_resource</text>
<text text-anchor="start" x="1172.5293" y="-1769.8796" font-family="Times,serif" font-size="14.00" fill="#000000">sign_up</text>
<text text-anchor="start" x="1172.5293" y="-1754.8796" font-family="Times,serif" font-size="14.00" fill="#000000">sign_up_params</text>
<text text-anchor="start" x="1172.5293" y="-1739.8796" font-family="Times,serif" font-size="14.00" fill="#000000">translation_scope</text>
<text text-anchor="start" x="1172.5293" y="-1724.8796" font-family="Times,serif" font-size="14.00" fill="#000000">update_needs_confirmation?</text>
<text text-anchor="start" x="1172.5293" y="-1709.8796" font-family="Times,serif" font-size="14.00" fill="#000000">update_resource</text>
<polyline fill="none" stroke="#000000" points="1164.5293,-1702.0796 1361.5293,-1702.0796 "/>
<text text-anchor="start" x="1172.5293" y="-1686.8796" font-family="Times,serif" font-size="14.00" fill="#000000">_layout</text>
<text text-anchor="start" x="1172.5293" y="-1671.8796" font-family="Times,serif" font-size="14.00" fill="#000000">set_flash_message_for_update</text>
<text text-anchor="start" x="1172.5293" y="-1656.8796" font-family="Times,serif" font-size="14.00" fill="#000000">sign_in_after_change_password?</text>
</g>
<!-- Devise::RegistrationsController&#45;&gt;Users::RegistrationsController -->
<g id="edge6" class="edge">
<title>Devise::RegistrationsController&#45;&gt;Users::RegistrationsController</title>
<path fill="none" stroke="#000000" d="M1261.9801,-1996.4039C1261.2271,-2121.1691 1260.2658,-2280.4324 1259.7979,-2357.9565"/>
</g>
<!-- DeviseController&#45;&gt;Devise::ConfirmationsController -->
<g id="edge8" class="edge">
<title>DeviseController&#45;&gt;Devise::ConfirmationsController</title>
<path fill="none" stroke="#000000" d="M1161.3116,-1210.2049C1066.1937,-1185.2089 918.8114,-1146.4782 808.058,-1117.3732"/>
</g>
<!-- DeviseController&#45;&gt;Devise::OmniauthCallbacksController -->
<g id="edge9" class="edge">
<title>DeviseController&#45;&gt;Devise::OmniauthCallbacksController</title>
<path fill="none" stroke="#000000" d="M1352.5833,-1208.791C1458.6163,-1179.4 1629.4346,-1132.0515 1741.8685,-1100.8863"/>
</g>
<!-- DeviseController&#45;&gt;Devise::PasswordsController -->
<g id="edge10" class="edge">
<title>DeviseController&#45;&gt;Devise::PasswordsController</title>
<path fill="none" stroke="#000000" d="M1296.1172,-1038.9611C1313.3483,-952.7335 1332.8241,-855.273 1346.936,-784.6538"/>
</g>
<!-- DeviseController&#45;&gt;Devise::UnlocksController -->
<g id="edge11" class="edge">
<title>DeviseController&#45;&gt;Devise::UnlocksController</title>
<path fill="none" stroke="#000000" d="M1161.0982,-1307.0498C1080.3086,-1367.5538 964.9881,-1453.9184 882.5418,-1515.6631"/>
</g>
<!-- DeviseController&#45;&gt;Devise::SessionsController -->
<g id="edge12" class="edge">
<title>DeviseController&#45;&gt;Devise::SessionsController</title>
<path fill="none" stroke="#000000" d="M1352.4082,-1304.3877C1441.7185,-1368.9597 1573.6756,-1464.3657 1658.3464,-1525.5833"/>
</g>
<!-- DeviseController&#45;&gt;Devise::RegistrationsController -->
<g id="edge13" class="edge">
<title>DeviseController&#45;&gt;Devise::RegistrationsController</title>
<path fill="none" stroke="#000000" d="M1258.9352,-1431.6848C1259.6721,-1502.0404 1260.4969,-1580.7949 1261.2121,-1649.077"/>
</g>
</g>
</svg>
