<?xml version="1.0" encoding="UTF-8" standalone="no"?>
<!DOCTYPE svg PUBLIC "-//W3C//DTD SVG 1.1//EN"
 "http://www.w3.org/Graphics/SVG/1.1/DTD/svg11.dtd">
<!-- Generated by graphviz version 2.40.1 (20161225.0304)
 -->
<!-- Title: controllers_diagram Pages: 1 -->
<svg width="638pt" height="534pt"
 viewBox="0.00 0.00 638.00 534.00" xmlns="http://www.w3.org/2000/svg" xmlns:xlink="http://www.w3.org/1999/xlink">
<g id="graph0" class="graph" transform="scale(1 1) rotate(0) translate(4 530)">
<title>controllers_diagram</title>
<polygon fill="transparent" stroke="transparent" points="-4,4 -4,-530 634,-530 634,4 -4,4"/>
<!-- _diagram_info -->
<g id="node1" class="node">
<title>_diagram_info</title>
<text text-anchor="start" x="344" y="-383.6" font-family="Times,serif" font-size="13.00" fill="#000000">Controllers diagram</text>
<text text-anchor="start" x="344" y="-369.6" font-family="Times,serif" font-size="13.00" fill="#000000">Date: Apr 24 2020 &#45; 21:39</text>
<text text-anchor="start" x="344" y="-355.6" font-family="Times,serif" font-size="13.00" fill="#000000">Migration version: 20200425013310</text>
<text text-anchor="start" x="344" y="-341.6" font-family="Times,serif" font-size="13.00" fill="#000000">Generated by RailRoady 1.5.3</text>
<text text-anchor="start" x="344" y="-327.6" font-family="Times,serif" font-size="13.00" fill="#000000">http://railroady.prestonlee.com</text>
</g>
<!-- Users::ConfirmationsController -->
<g id="node2" class="node">
<title>Users::ConfirmationsController</title>
<path fill="none" stroke="#000000" d="M124,-416.5C124,-416.5 289,-416.5 289,-416.5 295,-416.5 301,-422.5 301,-428.5 301,-428.5 301,-498.5 301,-498.5 301,-504.5 295,-510.5 289,-510.5 289,-510.5 124,-510.5 124,-510.5 118,-510.5 112,-504.5 112,-498.5 112,-498.5 112,-428.5 112,-428.5 112,-422.5 118,-416.5 124,-416.5"/>
<text text-anchor="middle" x="206.5" y="-495.3" font-family="Times,serif" font-size="14.00" fill="#000000">Users::ConfirmationsController</text>
<polyline fill="none" stroke="#000000" points="112,-487.5 301,-487.5 "/>
<polyline fill="none" stroke="#000000" points="112,-463.5 301,-463.5 "/>
<polyline fill="none" stroke="#000000" points="112,-439.5 301,-439.5 "/>
<text text-anchor="start" x="120" y="-424.3" font-family="Times,serif" font-size="14.00" fill="#000000">_layout</text>
</g>
<!-- Users::OmniauthCallbacksController -->
<g id="node3" class="node">
<title>Users::OmniauthCallbacksController</title>
<path fill="none" stroke="#000000" d="M348,-192.5C348,-192.5 542,-192.5 542,-192.5 548,-192.5 554,-198.5 554,-204.5 554,-204.5 554,-274.5 554,-274.5 554,-280.5 548,-286.5 542,-286.5 542,-286.5 348,-286.5 348,-286.5 342,-286.5 336,-280.5 336,-274.5 336,-274.5 336,-204.5 336,-204.5 336,-198.5 342,-192.5 348,-192.5"/>
<text text-anchor="middle" x="445" y="-271.3" font-family="Times,serif" font-size="14.00" fill="#000000">Users::OmniauthCallbacksController</text>
<polyline fill="none" stroke="#000000" points="336,-263.5 554,-263.5 "/>
<polyline fill="none" stroke="#000000" points="336,-239.5 554,-239.5 "/>
<polyline fill="none" stroke="#000000" points="336,-215.5 554,-215.5 "/>
<text text-anchor="start" x="344" y="-200.3" font-family="Times,serif" font-size="14.00" fill="#000000">_layout</text>
</g>
<!-- Users::PasswordsController -->
<g id="node4" class="node">
<title>Users::PasswordsController</title>
<path fill="none" stroke="#000000" d="M348,-64.5C348,-64.5 491,-64.5 491,-64.5 497,-64.5 503,-70.5 503,-76.5 503,-76.5 503,-146.5 503,-146.5 503,-152.5 497,-158.5 491,-158.5 491,-158.5 348,-158.5 348,-158.5 342,-158.5 336,-152.5 336,-146.5 336,-146.5 336,-76.5 336,-76.5 336,-70.5 342,-64.5 348,-64.5"/>
<text text-anchor="middle" x="419.5" y="-143.3" font-family="Times,serif" font-size="14.00" fill="#000000">Users::PasswordsController</text>
<polyline fill="none" stroke="#000000" points="336,-135.5 503,-135.5 "/>
<polyline fill="none" stroke="#000000" points="336,-111.5 503,-111.5 "/>
<polyline fill="none" stroke="#000000" points="336,-87.5 503,-87.5 "/>
<text text-anchor="start" x="344" y="-72.3" font-family="Times,serif" font-size="14.00" fill="#000000">_layout</text>
</g>
<!-- Users::UnlocksController -->
<g id="node5" class="node">
<title>Users::UnlocksController</title>
<path fill="none" stroke="#000000" d="M12,-288.5C12,-288.5 143,-288.5 143,-288.5 149,-288.5 155,-294.5 155,-300.5 155,-300.5 155,-370.5 155,-370.5 155,-376.5 149,-382.5 143,-382.5 143,-382.5 12,-382.5 12,-382.5 6,-382.5 0,-376.5 0,-370.5 0,-370.5 0,-300.5 0,-300.5 0,-294.5 6,-288.5 12,-288.5"/>
<text text-anchor="middle" x="77.5" y="-367.3" font-family="Times,serif" font-size="14.00" fill="#000000">Users::UnlocksController</text>
<polyline fill="none" stroke="#000000" points="0,-359.5 155,-359.5 "/>
<polyline fill="none" stroke="#000000" points="0,-335.5 155,-335.5 "/>
<polyline fill="none" stroke="#000000" points="0,-311.5 155,-311.5 "/>
<text text-anchor="start" x="8" y="-296.3" font-family="Times,serif" font-size="14.00" fill="#000000">_layout</text>
</g>
<!-- Users::SessionsController -->
<g id="node6" class="node">
<title>Users::SessionsController</title>
<path fill="none" stroke="#000000" d="M12,-160.5C12,-160.5 145,-160.5 145,-160.5 151,-160.5 157,-166.5 157,-172.5 157,-172.5 157,-241.5 157,-241.5 157,-247.5 151,-253.5 145,-253.5 145,-253.5 12,-253.5 12,-253.5 6,-253.5 0,-247.5 0,-241.5 0,-241.5 0,-172.5 0,-172.5 0,-166.5 6,-160.5 12,-160.5"/>
<text text-anchor="middle" x="78.5" y="-238.3" font-family="Times,serif" font-size="14.00" fill="#000000">Users::SessionsController</text>
<polyline fill="none" stroke="#000000" points="0,-230.5 157,-230.5 "/>
<text text-anchor="start" x="8" y="-215.3" font-family="Times,serif" font-size="14.00" fill="#000000">destroy</text>
<polyline fill="none" stroke="#000000" points="0,-207.5 157,-207.5 "/>
<polyline fill="none" stroke="#000000" points="0,-183.5 157,-183.5 "/>
<text text-anchor="start" x="8" y="-168.3" font-family="Times,serif" font-size="14.00" fill="#000000">_layout</text>
</g>
<!-- Users::RegistrationsController -->
<g id="node7" class="node">
<title>Users::RegistrationsController</title>
<path fill="none" stroke="#000000" d="M428,-432.5C428,-432.5 586,-432.5 586,-432.5 592,-432.5 598,-438.5 598,-444.5 598,-444.5 598,-513.5 598,-513.5 598,-519.5 592,-525.5 586,-525.5 586,-525.5 428,-525.5 428,-525.5 422,-525.5 416,-519.5 416,-513.5 416,-513.5 416,-444.5 416,-444.5 416,-438.5 422,-432.5 428,-432.5"/>
<text text-anchor="middle" x="507" y="-510.3" font-family="Times,serif" font-size="14.00" fill="#000000">Users::RegistrationsController</text>
<polyline fill="none" stroke="#000000" points="416,-502.5 598,-502.5 "/>
<text text-anchor="start" x="424" y="-487.3" font-family="Times,serif" font-size="14.00" fill="#000000">configure_sign_up_params</text>
<polyline fill="none" stroke="#000000" points="416,-479.5 598,-479.5 "/>
<polyline fill="none" stroke="#000000" points="416,-455.5 598,-455.5 "/>
<text text-anchor="start" x="424" y="-440.3" font-family="Times,serif" font-size="14.00" fill="#000000">_layout</text>
</g>
<!-- ApplicationController -->
<g id="node8" class="node">
<title>ApplicationController</title>
<path fill="none" stroke="#000000" d="M28,-32.5C28,-32.5 140,-32.5 140,-32.5 146,-32.5 152,-38.5 152,-44.5 152,-44.5 152,-114.5 152,-114.5 152,-120.5 146,-126.5 140,-126.5 140,-126.5 28,-126.5 28,-126.5 22,-126.5 16,-120.5 16,-114.5 16,-114.5 16,-44.5 16,-44.5 16,-38.5 22,-32.5 28,-32.5"/>
<text text-anchor="middle" x="84" y="-111.3" font-family="Times,serif" font-size="14.00" fill="#000000">ApplicationController</text>
<polyline fill="none" stroke="#000000" points="16,-103.5 152,-103.5 "/>
<polyline fill="none" stroke="#000000" points="16,-79.5 152,-79.5 "/>
<polyline fill="none" stroke="#000000" points="16,-55.5 152,-55.5 "/>
<text text-anchor="start" x="24" y="-40.3" font-family="Times,serif" font-size="14.00" fill="#000000">_layout</text>
</g>
<!-- TweetsController -->
<g id="node9" class="node">
<title>TweetsController</title>
<path fill="none" stroke="#000000" d="M204,-144.5C204,-144.5 291,-144.5 291,-144.5 297,-144.5 303,-150.5 303,-156.5 303,-156.5 303,-360.5 303,-360.5 303,-366.5 297,-372.5 291,-372.5 291,-372.5 204,-372.5 204,-372.5 198,-372.5 192,-366.5 192,-360.5 192,-360.5 192,-156.5 192,-156.5 192,-150.5 198,-144.5 204,-144.5"/>
<text text-anchor="middle" x="247.5" y="-357.3" font-family="Times,serif" font-size="14.00" fill="#000000">TweetsController</text>
<polyline fill="none" stroke="#000000" points="192,-349.5 303,-349.5 "/>
<text text-anchor="start" x="200" y="-334.3" font-family="Times,serif" font-size="14.00" fill="#000000">create</text>
<text text-anchor="start" x="200" y="-319.3" font-family="Times,serif" font-size="14.00" fill="#000000">destroy</text>
<text text-anchor="start" x="200" y="-304.3" font-family="Times,serif" font-size="14.00" fill="#000000">edit</text>
<text text-anchor="start" x="200" y="-289.3" font-family="Times,serif" font-size="14.00" fill="#000000">index</text>
<text text-anchor="start" x="200" y="-274.3" font-family="Times,serif" font-size="14.00" fill="#000000">new</text>
<text text-anchor="start" x="200" y="-259.3" font-family="Times,serif" font-size="14.00" fill="#000000">retweet</text>
<text text-anchor="start" x="200" y="-244.3" font-family="Times,serif" font-size="14.00" fill="#000000">show</text>
<text text-anchor="start" x="200" y="-229.3" font-family="Times,serif" font-size="14.00" fill="#000000">update</text>
<polyline fill="none" stroke="#000000" points="192,-221.5 303,-221.5 "/>
<polyline fill="none" stroke="#000000" points="192,-197.5 303,-197.5 "/>
<text text-anchor="start" x="200" y="-182.3" font-family="Times,serif" font-size="14.00" fill="#000000">_layout</text>
<text text-anchor="start" x="200" y="-167.3" font-family="Times,serif" font-size="14.00" fill="#000000">set_tweet</text>
<text text-anchor="start" x="200" y="-152.3" font-family="Times,serif" font-size="14.00" fill="#000000">tweet_params</text>
</g>
<!-- LikesController -->
<g id="node10" class="node">
<title>LikesController</title>
<path fill="none" stroke="#000000" d="M540,-.5C540,-.5 618,-.5 618,-.5 624,-.5 630,-6.5 630,-12.5 630,-12.5 630,-126.5 630,-126.5 630,-132.5 624,-138.5 618,-138.5 618,-138.5 540,-138.5 540,-138.5 534,-138.5 528,-132.5 528,-126.5 528,-126.5 528,-12.5 528,-12.5 528,-6.5 534,-.5 540,-.5"/>
<text text-anchor="middle" x="579" y="-123.3" font-family="Times,serif" font-size="14.00" fill="#000000">LikesController</text>
<polyline fill="none" stroke="#000000" points="528,-115.5 630,-115.5 "/>
<text text-anchor="start" x="536" y="-100.3" font-family="Times,serif" font-size="14.00" fill="#000000">already_liked?</text>
<text text-anchor="start" x="536" y="-85.3" font-family="Times,serif" font-size="14.00" fill="#000000">create</text>
<text text-anchor="start" x="536" y="-70.3" font-family="Times,serif" font-size="14.00" fill="#000000">index</text>
<polyline fill="none" stroke="#000000" points="528,-62.5 630,-62.5 "/>
<polyline fill="none" stroke="#000000" points="528,-38.5 630,-38.5 "/>
<text text-anchor="start" x="536" y="-23.3" font-family="Times,serif" font-size="14.00" fill="#000000">_layout</text>
<text text-anchor="start" x="536" y="-8.3" font-family="Times,serif" font-size="14.00" fill="#000000">find_post</text>
</g>
</g>
</svg>
