<?xml version="1.0" encoding="UTF-8" standalone="no"?>
<!DOCTYPE svg PUBLIC "-//W3C//DTD SVG 1.1//EN"
 "http://www.w3.org/Graphics/SVG/1.1/DTD/svg11.dtd">
<!-- Generated by graphviz version 2.40.1 (20161225.0304)
 -->
<!-- Title: models_diagram Pages: 1 -->
<svg width="520pt" height="230pt"
 viewBox="0.00 0.00 520.50 230.00" xmlns="http://www.w3.org/2000/svg" xmlns:xlink="http://www.w3.org/1999/xlink">
<g id="graph0" class="graph" transform="scale(1 1) rotate(0) translate(4 226)">
<title>models_diagram</title>
<polygon fill="transparent" stroke="transparent" points="-4,4 -4,-226 516.4971,-226 516.4971,4 -4,4"/>
<!-- _diagram_info -->
<g id="node1" class="node">
<title>_diagram_info</title>
<text text-anchor="start" x="8" y="-207.6" font-family="Times,serif" font-size="13.00" fill="#000000">Models diagram</text>
<text text-anchor="start" x="8" y="-193.6" font-family="Times,serif" font-size="13.00" fill="#000000">Date: Apr 24 2020 &#45; 21:39</text>
<text text-anchor="start" x="8" y="-179.6" font-family="Times,serif" font-size="13.00" fill="#000000">Migration version: 20200425013310</text>
<text text-anchor="start" x="8" y="-165.6" font-family="Times,serif" font-size="13.00" fill="#000000">Generated by RailRoady 1.5.3</text>
<text text-anchor="start" x="8" y="-151.6" font-family="Times,serif" font-size="13.00" fill="#000000">http://railroady.prestonlee.com</text>
</g>
<!-- ApplicationRecord -->
<g id="node2" class="node">
<title>ApplicationRecord</title>
<ellipse fill="none" stroke="#000000" cx="309" cy="-183" rx="77.1866" ry="18"/>
<text text-anchor="middle" x="309" y="-179.3" font-family="Times,serif" font-size="14.00" fill="#000000">ApplicationRecord</text>
</g>
<!-- User -->
<g id="node3" class="node">
<title>User</title>
<ellipse fill="none" stroke="#000000" cx="432" cy="-183" rx="27.0966" ry="18"/>
<text text-anchor="middle" x="432" y="-179.3" font-family="Times,serif" font-size="14.00" fill="#000000">User</text>
</g>
<!-- Like -->
<g id="node4" class="node">
<title>Like</title>
<ellipse fill="none" stroke="#000000" cx="432" cy="-18" rx="27" ry="18"/>
<text text-anchor="middle" x="432" y="-14.3" font-family="Times,serif" font-size="14.00" fill="#000000">Like</text>
</g>
<!-- User&#45;&gt;Like -->
<g id="edge2" class="edge">
<title>User&#45;&gt;Like</title>
<path fill="none" stroke="#cc714d" d="M426.4653,-156.866C422.4061,-134.3708 418.0718,-101.0443 421,-72 421.8637,-63.4327 423.4797,-54.215 425.2123,-45.8632"/>
<ellipse fill="none" stroke="#cc714d" cx="427.2474" cy="-160.9955" rx="4" ry="4"/>
<polygon fill="#cc714d" stroke="#cc714d" points="425.2645,-45.6262 431.8154,-36.832 426.3429,-40.7438 427.4213,-35.8615 427.4213,-35.8615 427.4213,-35.8615 426.3429,-40.7438 423.0272,-34.8909 425.2645,-45.6262 425.2645,-45.6262"/>
</g>
<!-- Tweet -->
<g id="node5" class="node">
<title>Tweet</title>
<ellipse fill="none" stroke="#000000" cx="462" cy="-90" rx="32.4942" ry="18"/>
<text text-anchor="middle" x="462" y="-86.3" font-family="Times,serif" font-size="14.00" fill="#000000">Tweet</text>
</g>
<!-- User&#45;&gt;Tweet -->
<g id="edge1" class="edge">
<title>User&#45;&gt;Tweet</title>
<path fill="none" stroke="#fba8d2" d="M440.2999,-157.2704C444.297,-144.8792 449.0931,-130.0113 453.1587,-117.4079"/>
<ellipse fill="none" stroke="#fba8d2" cx="439.0123" cy="-161.2618" rx="4" ry="4"/>
<polygon fill="#fba8d2" stroke="#fba8d2" points="453.1634,-117.3934 460.5161,-109.2578 454.6984,-112.6348 456.2335,-107.8763 456.2335,-107.8763 456.2335,-107.8763 454.6984,-112.6348 451.9508,-106.4947 453.1634,-117.3934 453.1634,-117.3934"/>
</g>
<!-- Tweet&#45;&gt;Like -->
<g id="edge3" class="edge">
<title>Tweet&#45;&gt;Like</title>
<path fill="none" stroke="#4b3319" d="M451.4663,-64.7192C448.8104,-58.3449 445.9488,-51.4772 443.2588,-45.0211"/>
<ellipse fill="none" stroke="#4b3319" cx="453.0458" cy="-68.5099" rx="4" ry="4"/>
<polygon fill="#4b3319" stroke="#4b3319" points="443.0731,-44.5754 443.3808,-33.6138 441.15,-39.96 439.2269,-35.3446 439.2269,-35.3446 439.2269,-35.3446 441.15,-39.96 435.0731,-37.0754 443.0731,-44.5754 443.0731,-44.5754"/>
</g>
<!-- Tweet&#45;&gt;Tweet -->
<g id="edge4" class="edge">
<title>Tweet&#45;&gt;Tweet</title>
<path fill="none" stroke="#a2e65b" d="M493.3756,-103.4995C503.982,-103.5526 512.4971,-99.0527 512.4971,-90 512.4971,-81.5625 505.1001,-77.0801 495.507,-76.5527"/>
<ellipse fill="none" stroke="#a2e65b" cx="489.3526" cy="-103.0756" rx="4" ry="4"/>
<polygon fill="#a2e65b" stroke="#a2e65b" points="495.3443,-76.5653 485.0244,-72.8574 490.3595,-76.9545 485.3746,-77.3438 485.3746,-77.3438 485.3746,-77.3438 490.3595,-76.9545 485.7249,-81.8301 495.3443,-76.5653 495.3443,-76.5653"/>
</g>
</g>
</svg>
