<?xml version="1.0" encoding="UTF-8" standalone="no"?>
<!DOCTYPE svg PUBLIC "-//W3C//DTD SVG 1.1//EN"
 "http://www.w3.org/Graphics/SVG/1.1/DTD/svg11.dtd">
<!-- Generated by graphviz version 2.40.1 (20161225.0304)
 -->
<!-- Title: models_diagram Pages: 1 -->
<svg width="2235pt" height="590pt"
 viewBox="0.00 0.00 2235.00 590.00" xmlns="http://www.w3.org/2000/svg" xmlns:xlink="http://www.w3.org/1999/xlink">
<g id="graph0" class="graph" transform="scale(1 1) rotate(0) translate(4 586)">
<title>models_diagram</title>
<polygon fill="transparent" stroke="transparent" points="-4,4 -4,-586 2231,-586 2231,4 -4,4"/>
<!-- _diagram_info -->
<g id="node1" class="node">
<title>_diagram_info</title>
<text text-anchor="start" x="8" y="-567.6" font-family="Times,serif" font-size="13.00" fill="#000000">Models diagram</text>
<text text-anchor="start" x="8" y="-553.6" font-family="Times,serif" font-size="13.00" fill="#000000">Date: Apr 23 2020 &#45; 19:12</text>
<text text-anchor="start" x="8" y="-539.6" font-family="Times,serif" font-size="13.00" fill="#000000">Migration version: 20200423014212</text>
<text text-anchor="start" x="8" y="-525.6" font-family="Times,serif" font-size="13.00" fill="#000000">Generated by RailRoady 1.5.3</text>
<text text-anchor="start" x="8" y="-511.6" font-family="Times,serif" font-size="13.00" fill="#000000">http://railroady.prestonlee.com</text>
</g>
<!-- ApplicationRecord -->
<g id="node2" class="node">
<title>ApplicationRecord</title>
<ellipse fill="none" stroke="#000000" cx="309" cy="-543" rx="77.1866" ry="18"/>
<text text-anchor="middle" x="309" y="-539.3" font-family="Times,serif" font-size="14.00" fill="#000000">ApplicationRecord</text>
</g>
<!-- User -->
<g id="node3" class="node">
<title>User</title>
<path fill="none" stroke="#000000" d="M93,-286.5C93,-286.5 269,-286.5 269,-286.5 275,-286.5 281,-292.5 281,-298.5 281,-298.5 281,-455.5 281,-455.5 281,-461.5 275,-467.5 269,-467.5 269,-467.5 93,-467.5 93,-467.5 87,-467.5 81,-461.5 81,-455.5 81,-455.5 81,-298.5 81,-298.5 81,-292.5 87,-286.5 93,-286.5"/>
<text text-anchor="middle" x="181" y="-452.3" font-family="Times,serif" font-size="14.00" fill="#000000">User</text>
<polyline fill="none" stroke="#000000" points="81,-444.5 281,-444.5 "/>
<text text-anchor="start" x="89" y="-429.3" font-family="Times,serif" font-size="14.00" fill="#000000">id :integer</text>
<text text-anchor="start" x="89" y="-414.3" font-family="Times,serif" font-size="14.00" fill="#000000">email :varchar</text>
<text text-anchor="start" x="89" y="-399.3" font-family="Times,serif" font-size="14.00" fill="#000000">encrypted_password :varchar</text>
<text text-anchor="start" x="89" y="-384.3" font-family="Times,serif" font-size="14.00" fill="#000000">name :varchar</text>
<text text-anchor="start" x="89" y="-369.3" font-family="Times,serif" font-size="14.00" fill="#000000">profile_picture :varchar</text>
<text text-anchor="start" x="89" y="-354.3" font-family="Times,serif" font-size="14.00" fill="#000000">reset_password_token :varchar</text>
<text text-anchor="start" x="89" y="-339.3" font-family="Times,serif" font-size="14.00" fill="#000000">reset_password_sent_at :datetime</text>
<text text-anchor="start" x="89" y="-324.3" font-family="Times,serif" font-size="14.00" fill="#000000">remember_created_at :datetime</text>
<text text-anchor="start" x="89" y="-309.3" font-family="Times,serif" font-size="14.00" fill="#000000">created_at :datetime</text>
<text text-anchor="start" x="89" y="-294.3" font-family="Times,serif" font-size="14.00" fill="#000000">updated_at :datetime</text>
</g>
<!-- ApplicationRecord&#45;&gt;User -->
<g id="edge3" class="edge">
<title>ApplicationRecord&#45;&gt;User</title>
<path fill="none" stroke="#000000" d="M295.3018,-525.2351C284.2734,-510.9327 267.8618,-489.6489 250.893,-467.6424"/>
</g>
<!-- Like -->
<g id="node4" class="node">
<title>Like</title>
<path fill="none" stroke="#000000" d="M210.5,-.5C210.5,-.5 317.5,-.5 317.5,-.5 323.5,-.5 329.5,-6.5 329.5,-12.5 329.5,-12.5 329.5,-94.5 329.5,-94.5 329.5,-100.5 323.5,-106.5 317.5,-106.5 317.5,-106.5 210.5,-106.5 210.5,-106.5 204.5,-106.5 198.5,-100.5 198.5,-94.5 198.5,-94.5 198.5,-12.5 198.5,-12.5 198.5,-6.5 204.5,-.5 210.5,-.5"/>
<text text-anchor="middle" x="264" y="-91.3" font-family="Times,serif" font-size="14.00" fill="#000000">Like</text>
<polyline fill="none" stroke="#000000" points="198.5,-83.5 329.5,-83.5 "/>
<text text-anchor="start" x="206.5" y="-68.3" font-family="Times,serif" font-size="14.00" fill="#000000">id :integer</text>
<text text-anchor="start" x="206.5" y="-53.3" font-family="Times,serif" font-size="14.00" fill="#000000">user_id :integer</text>
<text text-anchor="start" x="206.5" y="-38.3" font-family="Times,serif" font-size="14.00" fill="#000000">tweet_id :integer</text>
<text text-anchor="start" x="206.5" y="-23.3" font-family="Times,serif" font-size="14.00" fill="#000000">created_at :datetime</text>
<text text-anchor="start" x="206.5" y="-8.3" font-family="Times,serif" font-size="14.00" fill="#000000">updated_at :datetime</text>
</g>
<!-- ApplicationRecord&#45;&gt;Like -->
<g id="edge4" class="edge">
<title>ApplicationRecord&#45;&gt;Like</title>
<path fill="none" stroke="#000000" d="M315.4302,-524.7461C334.794,-466.7885 388.2176,-282.544 338,-143 333.3577,-130.1001 325.9604,-117.7384 317.5993,-106.5392"/>
</g>
<!-- Tweet -->
<g id="node5" class="node">
<title>Tweet</title>
<path fill="none" stroke="#000000" d="M210.5,-143.5C210.5,-143.5 317.5,-143.5 317.5,-143.5 323.5,-143.5 329.5,-149.5 329.5,-155.5 329.5,-155.5 329.5,-237.5 329.5,-237.5 329.5,-243.5 323.5,-249.5 317.5,-249.5 317.5,-249.5 210.5,-249.5 210.5,-249.5 204.5,-249.5 198.5,-243.5 198.5,-237.5 198.5,-237.5 198.5,-155.5 198.5,-155.5 198.5,-149.5 204.5,-143.5 210.5,-143.5"/>
<text text-anchor="middle" x="264" y="-234.3" font-family="Times,serif" font-size="14.00" fill="#000000">Tweet</text>
<polyline fill="none" stroke="#000000" points="198.5,-226.5 329.5,-226.5 "/>
<text text-anchor="start" x="206.5" y="-211.3" font-family="Times,serif" font-size="14.00" fill="#000000">id :integer</text>
<text text-anchor="start" x="206.5" y="-196.3" font-family="Times,serif" font-size="14.00" fill="#000000">content :text</text>
<text text-anchor="start" x="206.5" y="-181.3" font-family="Times,serif" font-size="14.00" fill="#000000">user_id :integer</text>
<text text-anchor="start" x="206.5" y="-166.3" font-family="Times,serif" font-size="14.00" fill="#000000">created_at :datetime</text>
<text text-anchor="start" x="206.5" y="-151.3" font-family="Times,serif" font-size="14.00" fill="#000000">updated_at :datetime</text>
</g>
<!-- ApplicationRecord&#45;&gt;Tweet -->
<g id="edge6" class="edge">
<title>ApplicationRecord&#45;&gt;Tweet</title>
<path fill="none" stroke="#000000" d="M308.9539,-524.7647C308.5645,-482.4611 305.9455,-374.5021 290,-286 287.8482,-274.0569 284.7256,-261.4298 281.3858,-249.5447"/>
</g>
<!-- User&#45;&gt;Like -->
<g id="edge2" class="edge">
<title>User&#45;&gt;Like</title>
<path fill="none" stroke="#bfe729" d="M170.281,-278.296C169.1603,-235.4339 172.744,-185.4362 189,-143 192.737,-133.2446 198.0085,-123.7901 204.0453,-114.9107"/>
<ellipse fill="none" stroke="#bfe729" cx="170.4209" cy="-282.4927" rx="4" ry="4"/>
<polygon fill="#bfe729" stroke="#bfe729" points="204.1988,-114.6975 213.6942,-109.2122 207.1206,-110.64 210.0425,-106.5826 210.0425,-106.5826 210.0425,-106.5826 207.1206,-110.64 206.3908,-103.9529 204.1988,-114.6975 204.1988,-114.6975"/>
</g>
<!-- User&#45;&gt;Tweet -->
<g id="edge1" class="edge">
<title>User&#45;&gt;Tweet</title>
<path fill="none" stroke="#984e1a" d="M226.0306,-279.072C229.1695,-272.2459 232.2812,-265.4788 235.2933,-258.9284"/>
<ellipse fill="none" stroke="#984e1a" cx="224.2927" cy="-282.8514" rx="4" ry="4"/>
<polygon fill="#984e1a" stroke="#984e1a" points="235.4488,-258.5902 243.7151,-251.3848 237.5377,-254.0475 239.6266,-249.5048 239.6266,-249.5048 239.6266,-249.5048 237.5377,-254.0475 235.5382,-247.6247 235.4488,-258.5902 235.4488,-258.5902"/>
</g>
<!-- Tweet&#45;&gt;Like -->
<g id="edge5" class="edge">
<title>Tweet&#45;&gt;Like</title>
<path fill="none" stroke="#3700ee" d="M264,-135.0615C264,-129.0339 264,-122.9089 264,-116.8626"/>
<ellipse fill="none" stroke="#3700ee" cx="264" cy="-139.2521" rx="4" ry="4"/>
<polygon fill="#3700ee" stroke="#3700ee" points="264.0001,-116.7924 268.5,-106.7923 264,-111.7924 264,-106.7924 264,-106.7924 264,-106.7924 264,-111.7924 259.5,-106.7924 264.0001,-116.7924 264.0001,-116.7924"/>
</g>
<!-- ActiveStorage::Preview -->
<g id="node6" class="node">
<title>ActiveStorage::Preview</title>
<polygon fill="none" stroke="#000000" points="404,-520 404,-566 550,-566 550,-520 404,-520"/>
<text text-anchor="middle" x="477" y="-550.8" font-family="Times,serif" font-size="14.00" fill="#000000">ActiveStorage::Preview</text>
<polyline fill="none" stroke="#000000" points="404,-543 550,-543 "/>
<text text-anchor="middle" x="477" y="-527.8" font-family="Times,serif" font-size="14.00" fill="#000000"> </text>
</g>
<!-- ActiveStorage::Variant -->
<g id="node7" class="node">
<title>ActiveStorage::Variant</title>
<polygon fill="none" stroke="#000000" points="568,-520 568,-566 710,-566 710,-520 568,-520"/>
<text text-anchor="middle" x="639" y="-550.8" font-family="Times,serif" font-size="14.00" fill="#000000">ActiveStorage::Variant</text>
<polyline fill="none" stroke="#000000" points="568,-543 710,-543 "/>
<text text-anchor="middle" x="639" y="-527.8" font-family="Times,serif" font-size="14.00" fill="#000000"> </text>
</g>
<!-- ActiveStorage::Current -->
<g id="node8" class="node">
<title>ActiveStorage::Current</title>
<polygon fill="none" stroke="#000000" points="785.5,-354 785.5,-400 928.5,-400 928.5,-354 785.5,-354"/>
<text text-anchor="middle" x="857" y="-384.8" font-family="Times,serif" font-size="14.00" fill="#000000">ActiveStorage::Current</text>
<polyline fill="none" stroke="#000000" points="785.5,-377 928.5,-377 "/>
<text text-anchor="middle" x="857" y="-361.8" font-family="Times,serif" font-size="14.00" fill="#000000"> </text>
</g>
<!-- ActiveStorage::Variation -->
<g id="node9" class="node">
<title>ActiveStorage::Variation</title>
<polygon fill="none" stroke="#000000" points="1004,-520 1004,-566 1156,-566 1156,-520 1004,-520"/>
<text text-anchor="middle" x="1080" y="-550.8" font-family="Times,serif" font-size="14.00" fill="#000000">ActiveStorage::Variation</text>
<polyline fill="none" stroke="#000000" points="1004,-543 1156,-543 "/>
<text text-anchor="middle" x="1080" y="-527.8" font-family="Times,serif" font-size="14.00" fill="#000000"> </text>
</g>
<!-- ActiveStorage::Filename::Parameters -->
<g id="node10" class="node">
<title>ActiveStorage::Filename::Parameters</title>
<polygon fill="none" stroke="#000000" points="1174.5,-520 1174.5,-566 1395.5,-566 1395.5,-520 1174.5,-520"/>
<text text-anchor="middle" x="1285" y="-550.8" font-family="Times,serif" font-size="14.00" fill="#000000">ActiveStorage::Filename::Parameters</text>
<polyline fill="none" stroke="#000000" points="1174.5,-543 1395.5,-543 "/>
<text text-anchor="middle" x="1285" y="-527.8" font-family="Times,serif" font-size="14.00" fill="#000000"> </text>
</g>
<!-- ActiveStorage::Blob::Analyzable -->
<g id="node11" class="node">
<title>ActiveStorage::Blob::Analyzable</title>
<polygon fill="none" stroke="#000000" stroke-dasharray="1,5" points="1610.5,-561 1413.5,-561 1413.5,-525 1610.5,-525 1610.5,-561"/>
<text text-anchor="middle" x="1512" y="-539.3" font-family="Times,serif" font-size="14.00" fill="#000000">ActiveStorage::Blob::Analyzable</text>
</g>
<!-- ActiveStorage::Blob::Representable -->
<g id="node12" class="node">
<title>ActiveStorage::Blob::Representable</title>
<polygon fill="none" stroke="#000000" stroke-dasharray="1,5" points="1841,-561 1629,-561 1629,-525 1841,-525 1841,-561"/>
<text text-anchor="middle" x="1735" y="-539.3" font-family="Times,serif" font-size="14.00" fill="#000000">ActiveStorage::Blob::Representable</text>
</g>
<!-- ActiveStorage::Blob::Identifiable -->
<g id="node13" class="node">
<title>ActiveStorage::Blob::Identifiable</title>
<polygon fill="none" stroke="#000000" stroke-dasharray="1,5" points="2056.5,-561 1859.5,-561 1859.5,-525 2056.5,-525 2056.5,-561"/>
<text text-anchor="middle" x="1958" y="-539.3" font-family="Times,serif" font-size="14.00" fill="#000000">ActiveStorage::Blob::Identifiable</text>
</g>
<!-- ActiveStorage::Filename -->
<g id="node14" class="node">
<title>ActiveStorage::Filename</title>
<polygon fill="none" stroke="#000000" points="2075,-520 2075,-566 2227,-566 2227,-520 2075,-520"/>
<text text-anchor="middle" x="2151" y="-550.8" font-family="Times,serif" font-size="14.00" fill="#000000">ActiveStorage::Filename</text>
<polyline fill="none" stroke="#000000" points="2075,-543 2227,-543 "/>
<text text-anchor="middle" x="2151" y="-527.8" font-family="Times,serif" font-size="14.00" fill="#000000"> </text>
</g>
<!-- ActiveSupport::CurrentAttributes -->
<g id="node15" class="node">
<title>ActiveSupport::CurrentAttributes</title>
<ellipse fill="none" stroke="#000000" cx="857" cy="-543" rx="128.8774" ry="18"/>
<text text-anchor="middle" x="857" y="-539.3" font-family="Times,serif" font-size="14.00" fill="#000000">ActiveSupport::CurrentAttributes</text>
</g>
<!-- ActiveSupport::CurrentAttributes&#45;&gt;ActiveStorage::Current -->
<g id="edge7" class="edge">
<title>ActiveSupport::CurrentAttributes&#45;&gt;ActiveStorage::Current</title>
<path fill="none" stroke="#000000" d="M857,-524.9191C857,-494.5841 857,-433.4904 857,-400.0932"/>
</g>
</g>
</svg>
