<?xml version="1.0" encoding="UTF-8" standalone="no"?>
<!DOCTYPE svg PUBLIC "-//W3C//DTD SVG 1.1//EN"
 "http://www.w3.org/Graphics/SVG/1.1/DTD/svg11.dtd">
<!-- Generated by graphviz version 2.40.1 (20161225.0304)
 -->
<!-- Title: models_diagram Pages: 1 -->
<svg width="643pt" height="491pt"
 viewBox="0.00 0.00 642.50 491.00" xmlns="http://www.w3.org/2000/svg" xmlns:xlink="http://www.w3.org/1999/xlink">
<g id="graph0" class="graph" transform="scale(1 1) rotate(0) translate(4 487)">
<title>models_diagram</title>
<polygon fill="transparent" stroke="transparent" points="-4,4 -4,-487 638.5,-487 638.5,4 -4,4"/>
<!-- _diagram_info -->
<g id="node1" class="node">
<title>_diagram_info</title>
<text text-anchor="start" x="8" y="-416.6" font-family="Times,serif" font-size="13.00" fill="#000000">Models diagram</text>
<text text-anchor="start" x="8" y="-402.6" font-family="Times,serif" font-size="13.00" fill="#000000">Date: Apr 24 2020 &#45; 21:39</text>
<text text-anchor="start" x="8" y="-388.6" font-family="Times,serif" font-size="13.00" fill="#000000">Migration version: 20200425013310</text>
<text text-anchor="start" x="8" y="-374.6" font-family="Times,serif" font-size="13.00" fill="#000000">Generated by RailRoady 1.5.3</text>
<text text-anchor="start" x="8" y="-360.6" font-family="Times,serif" font-size="13.00" fill="#000000">http://railroady.prestonlee.com</text>
</g>
<!-- ApplicationRecord -->
<g id="node2" class="node">
<title>ApplicationRecord</title>
<ellipse fill="none" stroke="#000000" cx="309" cy="-392" rx="77.1866" ry="18"/>
<text text-anchor="middle" x="309" y="-388.3" font-family="Times,serif" font-size="14.00" fill="#000000">ApplicationRecord</text>
</g>
<!-- User -->
<g id="node3" class="node">
<title>User</title>
<path fill="none" stroke="#000000" d="M416,-301.5C416,-301.5 592,-301.5 592,-301.5 598,-301.5 604,-307.5 604,-313.5 604,-313.5 604,-470.5 604,-470.5 604,-476.5 598,-482.5 592,-482.5 592,-482.5 416,-482.5 416,-482.5 410,-482.5 404,-476.5 404,-470.5 404,-470.5 404,-313.5 404,-313.5 404,-307.5 410,-301.5 416,-301.5"/>
<text text-anchor="middle" x="504" y="-467.3" font-family="Times,serif" font-size="14.00" fill="#000000">User</text>
<polyline fill="none" stroke="#000000" points="404,-459.5 604,-459.5 "/>
<text text-anchor="start" x="412" y="-444.3" font-family="Times,serif" font-size="14.00" fill="#000000">id :integer</text>
<text text-anchor="start" x="412" y="-429.3" font-family="Times,serif" font-size="14.00" fill="#000000">email :varchar</text>
<text text-anchor="start" x="412" y="-414.3" font-family="Times,serif" font-size="14.00" fill="#000000">encrypted_password :varchar</text>
<text text-anchor="start" x="412" y="-399.3" font-family="Times,serif" font-size="14.00" fill="#000000">name :varchar</text>
<text text-anchor="start" x="412" y="-384.3" font-family="Times,serif" font-size="14.00" fill="#000000">profile_picture :varchar</text>
<text text-anchor="start" x="412" y="-369.3" font-family="Times,serif" font-size="14.00" fill="#000000">reset_password_token :varchar</text>
<text text-anchor="start" x="412" y="-354.3" font-family="Times,serif" font-size="14.00" fill="#000000">reset_password_sent_at :datetime</text>
<text text-anchor="start" x="412" y="-339.3" font-family="Times,serif" font-size="14.00" fill="#000000">remember_created_at :datetime</text>
<text text-anchor="start" x="412" y="-324.3" font-family="Times,serif" font-size="14.00" fill="#000000">created_at :datetime</text>
<text text-anchor="start" x="412" y="-309.3" font-family="Times,serif" font-size="14.00" fill="#000000">updated_at :datetime</text>
</g>
<!-- Like -->
<g id="node4" class="node">
<title>Like</title>
<path fill="none" stroke="#000000" d="M450.5,-.5C450.5,-.5 557.5,-.5 557.5,-.5 563.5,-.5 569.5,-6.5 569.5,-12.5 569.5,-12.5 569.5,-94.5 569.5,-94.5 569.5,-100.5 563.5,-106.5 557.5,-106.5 557.5,-106.5 450.5,-106.5 450.5,-106.5 444.5,-106.5 438.5,-100.5 438.5,-94.5 438.5,-94.5 438.5,-12.5 438.5,-12.5 438.5,-6.5 444.5,-.5 450.5,-.5"/>
<text text-anchor="middle" x="504" y="-91.3" font-family="Times,serif" font-size="14.00" fill="#000000">Like</text>
<polyline fill="none" stroke="#000000" points="438.5,-83.5 569.5,-83.5 "/>
<text text-anchor="start" x="446.5" y="-68.3" font-family="Times,serif" font-size="14.00" fill="#000000">id :integer</text>
<text text-anchor="start" x="446.5" y="-53.3" font-family="Times,serif" font-size="14.00" fill="#000000">user_id :integer</text>
<text text-anchor="start" x="446.5" y="-38.3" font-family="Times,serif" font-size="14.00" fill="#000000">tweet_id :integer</text>
<text text-anchor="start" x="446.5" y="-23.3" font-family="Times,serif" font-size="14.00" fill="#000000">created_at :datetime</text>
<text text-anchor="start" x="446.5" y="-8.3" font-family="Times,serif" font-size="14.00" fill="#000000">updated_at :datetime</text>
</g>
<!-- User&#45;&gt;Like -->
<g id="edge2" class="edge">
<title>User&#45;&gt;Like</title>
<path fill="none" stroke="#310ca1" d="M480.0476,-293.2129C478.403,-283.7223 477.0028,-274.2061 476,-265 470.1284,-211.0966 467.8113,-196.6003 476,-143 477.322,-134.3469 479.3237,-125.3807 481.6614,-116.6146"/>
<ellipse fill="none" stroke="#310ca1" cx="480.773" cy="-297.2351" rx="4" ry="4"/>
<polygon fill="#310ca1" stroke="#310ca1" points="481.7069,-116.4533 488.7557,-108.053 483.066,-111.6415 484.4251,-106.8298 484.4251,-106.8298 484.4251,-106.8298 483.066,-111.6415 480.0945,-105.6066 481.7069,-116.4533 481.7069,-116.4533"/>
</g>
<!-- Tweet -->
<g id="node5" class="node">
<title>Tweet</title>
<path fill="none" stroke="#000000" d="M497.5,-143.5C497.5,-143.5 604.5,-143.5 604.5,-143.5 610.5,-143.5 616.5,-149.5 616.5,-155.5 616.5,-155.5 616.5,-252.5 616.5,-252.5 616.5,-258.5 610.5,-264.5 604.5,-264.5 604.5,-264.5 497.5,-264.5 497.5,-264.5 491.5,-264.5 485.5,-258.5 485.5,-252.5 485.5,-252.5 485.5,-155.5 485.5,-155.5 485.5,-149.5 491.5,-143.5 497.5,-143.5"/>
<text text-anchor="middle" x="551" y="-249.3" font-family="Times,serif" font-size="14.00" fill="#000000">Tweet</text>
<polyline fill="none" stroke="#000000" points="485.5,-241.5 616.5,-241.5 "/>
<text text-anchor="start" x="493.5" y="-226.3" font-family="Times,serif" font-size="14.00" fill="#000000">id :integer</text>
<text text-anchor="start" x="493.5" y="-211.3" font-family="Times,serif" font-size="14.00" fill="#000000">content :text</text>
<text text-anchor="start" x="493.5" y="-196.3" font-family="Times,serif" font-size="14.00" fill="#000000">user_id :integer</text>
<text text-anchor="start" x="493.5" y="-181.3" font-family="Times,serif" font-size="14.00" fill="#000000">created_at :datetime</text>
<text text-anchor="start" x="493.5" y="-166.3" font-family="Times,serif" font-size="14.00" fill="#000000">updated_at :datetime</text>
<text text-anchor="start" x="493.5" y="-151.3" font-family="Times,serif" font-size="14.00" fill="#000000">tweet_id :integer</text>
</g>
<!-- User&#45;&gt;Tweet -->
<g id="edge1" class="edge">
<title>User&#45;&gt;Tweet</title>
<path fill="none" stroke="#a590cb" d="M528.6353,-293.4586C530.2009,-287.1964 531.7597,-280.9612 533.2839,-274.8643"/>
<ellipse fill="none" stroke="#a590cb" cx="527.6442" cy="-297.4235" rx="4" ry="4"/>
<polygon fill="#a590cb" stroke="#a590cb" points="533.386,-274.4557 540.1771,-265.8457 534.5987,-269.605 535.8114,-264.7543 535.8114,-264.7543 535.8114,-264.7543 534.5987,-269.605 531.4458,-263.6628 533.386,-274.4557 533.386,-274.4557"/>
</g>
<!-- Tweet&#45;&gt;Like -->
<g id="edge3" class="edge">
<title>Tweet&#45;&gt;Like</title>
<path fill="none" stroke="#682efc" d="M529.615,-135.5225C527.6367,-129.1876 525.6382,-122.7882 523.6762,-116.5058"/>
<ellipse fill="none" stroke="#682efc" cx="530.8264" cy="-139.4016" rx="4" ry="4"/>
<polygon fill="#682efc" stroke="#682efc" points="523.6124,-116.3013 524.9268,-105.4145 522.1219,-111.5286 520.6314,-106.7559 520.6314,-106.7559 520.6314,-106.7559 522.1219,-111.5286 516.336,-108.0974 523.6124,-116.3013 523.6124,-116.3013"/>
</g>
<!-- Tweet&#45;&gt;Tweet -->
<g id="edge4" class="edge">
<title>Tweet&#45;&gt;Tweet</title>
<path fill="none" stroke="#b0e2c5" d="M624.0029,-226.1495C630.456,-221.4906 634.5,-214.1074 634.5,-204 634.5,-194.7349 631.1019,-187.7589 625.5651,-183.072"/>
<ellipse fill="none" stroke="#b0e2c5" cx="620.3544" cy="-228.0513" rx="4" ry="4"/>
<polygon fill="#b0e2c5" stroke="#b0e2c5" points="625.5035,-183.0371 619.0292,-174.1865 621.1555,-180.5684 616.8074,-178.0997 616.8074,-178.0997 616.8074,-178.0997 621.1555,-180.5684 614.5856,-182.013 625.5035,-183.0371 625.5035,-183.0371"/>
</g>
</g>
</svg>
