<?xml version="1.0" encoding="UTF-8" standalone="no"?>
<!DOCTYPE svg PUBLIC "-//W3C//DTD SVG 1.1//EN"
 "http://www.w3.org/Graphics/SVG/1.1/DTD/svg11.dtd">
<!-- Generated by graphviz version 2.40.1 (20161225.0304)
 -->
<!-- Title: models_diagram Pages: 1 -->
<svg width="2651pt" height="302pt"
 viewBox="0.00 0.00 2651.00 302.00" xmlns="http://www.w3.org/2000/svg" xmlns:xlink="http://www.w3.org/1999/xlink">
<g id="graph0" class="graph" transform="scale(1 1) rotate(0) translate(4 298)">
<title>models_diagram</title>
<polygon fill="transparent" stroke="transparent" points="-4,4 -4,-298 2647,-298 2647,4 -4,4"/>
<!-- _diagram_info -->
<g id="node1" class="node">
<title>_diagram_info</title>
<text text-anchor="start" x="8" y="-279.6" font-family="Times,serif" font-size="13.00" fill="#000000">Models diagram</text>
<text text-anchor="start" x="8" y="-265.6" font-family="Times,serif" font-size="13.00" fill="#000000">Date: Apr 23 2020 &#45; 19:12</text>
<text text-anchor="start" x="8" y="-251.6" font-family="Times,serif" font-size="13.00" fill="#000000">Migration version: 20200423014212</text>
<text text-anchor="start" x="8" y="-237.6" font-family="Times,serif" font-size="13.00" fill="#000000">Generated by RailRoady 1.5.3</text>
<text text-anchor="start" x="8" y="-223.6" font-family="Times,serif" font-size="13.00" fill="#000000">http://railroady.prestonlee.com</text>
</g>
<!-- ApplicationRecord -->
<g id="node2" class="node">
<title>ApplicationRecord</title>
<ellipse fill="none" stroke="#000000" cx="309" cy="-255" rx="77.1866" ry="18"/>
<text text-anchor="middle" x="309" y="-251.3" font-family="Times,serif" font-size="14.00" fill="#000000">ApplicationRecord</text>
</g>
<!-- User -->
<g id="node3" class="node">
<title>User</title>
<ellipse fill="none" stroke="#000000" cx="254" cy="-162" rx="27.0966" ry="18"/>
<text text-anchor="middle" x="254" y="-158.3" font-family="Times,serif" font-size="14.00" fill="#000000">User</text>
</g>
<!-- ApplicationRecord&#45;&gt;User -->
<g id="edge3" class="edge">
<title>ApplicationRecord&#45;&gt;User</title>
<path fill="none" stroke="#000000" d="M298.3954,-237.0687C288.4689,-220.2838 273.7471,-195.3906 264.0159,-178.936"/>
</g>
<!-- Like -->
<g id="node4" class="node">
<title>Like</title>
<ellipse fill="none" stroke="#000000" cx="298" cy="-18" rx="27" ry="18"/>
<text text-anchor="middle" x="298" y="-14.3" font-family="Times,serif" font-size="14.00" fill="#000000">Like</text>
</g>
<!-- ApplicationRecord&#45;&gt;Like -->
<g id="edge4" class="edge">
<title>ApplicationRecord&#45;&gt;Like</title>
<path fill="none" stroke="#000000" d="M317.6142,-236.8694C332.2624,-203.4629 358.6176,-130.2791 339,-72 333.968,-57.051 322.9704,-42.9565 313.6311,-32.9177"/>
</g>
<!-- Tweet -->
<g id="node5" class="node">
<title>Tweet</title>
<ellipse fill="none" stroke="#000000" cx="298" cy="-90" rx="32.4942" ry="18"/>
<text text-anchor="middle" x="298" y="-86.3" font-family="Times,serif" font-size="14.00" fill="#000000">Tweet</text>
</g>
<!-- ApplicationRecord&#45;&gt;Tweet -->
<g id="edge6" class="edge">
<title>ApplicationRecord&#45;&gt;Tweet</title>
<path fill="none" stroke="#000000" d="M307.7808,-236.7117C305.6608,-204.9114 301.32,-139.8002 299.2079,-108.1188"/>
</g>
<!-- User&#45;&gt;Like -->
<g id="edge2" class="edge">
<title>User&#45;&gt;Like</title>
<path fill="none" stroke="#99e95d" d="M250.7308,-135.3637C249.4685,-117.0223 249.7587,-92.3826 257,-72 261.0428,-60.6205 268.4301,-49.689 275.8319,-40.6742"/>
<ellipse fill="none" stroke="#99e95d" cx="251.1117" cy="-139.8299" rx="4" ry="4"/>
<polygon fill="#99e95d" stroke="#99e95d" points="275.9694,-40.5163 285.9311,-35.9321 279.2537,-36.7463 282.5381,-32.9762 282.5381,-32.9762 282.5381,-32.9762 279.2537,-36.7463 279.145,-30.0203 275.9694,-40.5163 275.9694,-40.5163"/>
</g>
<!-- User&#45;&gt;Tweet -->
<g id="edge1" class="edge">
<title>User&#45;&gt;Tweet</title>
<path fill="none" stroke="#7ba693" d="M268.5366,-138.2129C272.9052,-131.0643 277.7192,-123.1868 282.1673,-115.9081"/>
<ellipse fill="none" stroke="#7ba693" cx="266.2909" cy="-141.8876" rx="4" ry="4"/>
<polygon fill="#7ba693" stroke="#7ba693" points="282.3302,-115.6415 291.3845,-109.4552 284.9374,-111.3751 287.5447,-107.1086 287.5447,-107.1086 287.5447,-107.1086 284.9374,-111.3751 283.7049,-104.7621 282.3302,-115.6415 282.3302,-115.6415"/>
</g>
<!-- Tweet&#45;&gt;Like -->
<g id="edge5" class="edge">
<title>Tweet&#45;&gt;Like</title>
<path fill="none" stroke="#718483" d="M298,-63.8144C298,-58.2775 298,-52.4053 298,-46.7785"/>
<ellipse fill="none" stroke="#718483" cx="298" cy="-67.8314" rx="4" ry="4"/>
<polygon fill="#718483" stroke="#718483" points="298.0001,-46.4133 302.5,-36.4132 298,-41.4133 298,-36.4133 298,-36.4133 298,-36.4133 298,-41.4133 293.5,-36.4133 298.0001,-46.4133 298.0001,-46.4133"/>
</g>
<!-- ActiveStorage::Preview -->
<g id="node6" class="node">
<title>ActiveStorage::Preview</title>
<polygon fill="none" stroke="#000000" points="550,-273 404,-273 404,-237 550,-237 550,-273"/>
<text text-anchor="middle" x="477" y="-251.3" font-family="Times,serif" font-size="14.00" fill="#000000">ActiveStorage::Preview</text>
</g>
<!-- ActiveStorage::Blob -->
<g id="node7" class="node">
<title>ActiveStorage::Blob</title>
<ellipse fill="none" stroke="#000000" cx="651" cy="-255" rx="83.3857" ry="18"/>
<text text-anchor="middle" x="651" y="-251.3" font-family="Times,serif" font-size="14.00" fill="#000000">ActiveStorage::Blob</text>
</g>
<!-- ActiveStorage::Variant -->
<g id="node8" class="node">
<title>ActiveStorage::Variant</title>
<polygon fill="none" stroke="#000000" points="894,-273 752,-273 752,-237 894,-237 894,-273"/>
<text text-anchor="middle" x="823" y="-251.3" font-family="Times,serif" font-size="14.00" fill="#000000">ActiveStorage::Variant</text>
</g>
<!-- ActiveStorage::Current -->
<g id="node9" class="node">
<title>ActiveStorage::Current</title>
<polygon fill="none" stroke="#000000" points="1112.5,-180 969.5,-180 969.5,-144 1112.5,-144 1112.5,-180"/>
<text text-anchor="middle" x="1041" y="-158.3" font-family="Times,serif" font-size="14.00" fill="#000000">ActiveStorage::Current</text>
</g>
<!-- ActiveStorage::Variation -->
<g id="node10" class="node">
<title>ActiveStorage::Variation</title>
<polygon fill="none" stroke="#000000" points="1340,-273 1188,-273 1188,-237 1340,-237 1340,-273"/>
<text text-anchor="middle" x="1264" y="-251.3" font-family="Times,serif" font-size="14.00" fill="#000000">ActiveStorage::Variation</text>
</g>
<!-- ActiveStorage::Attachment -->
<g id="node11" class="node">
<title>ActiveStorage::Attachment</title>
<ellipse fill="none" stroke="#000000" cx="1465" cy="-255" rx="107.4815" ry="18"/>
<text text-anchor="middle" x="1465" y="-251.3" font-family="Times,serif" font-size="14.00" fill="#000000">ActiveStorage::Attachment</text>
</g>
<!-- ActiveStorage::Filename::Parameters -->
<g id="node12" class="node">
<title>ActiveStorage::Filename::Parameters</title>
<polygon fill="none" stroke="#000000" points="1811.5,-273 1590.5,-273 1590.5,-237 1811.5,-237 1811.5,-273"/>
<text text-anchor="middle" x="1701" y="-251.3" font-family="Times,serif" font-size="14.00" fill="#000000">ActiveStorage::Filename::Parameters</text>
</g>
<!-- ActiveStorage::Blob::Analyzable -->
<g id="node13" class="node">
<title>ActiveStorage::Blob::Analyzable</title>
<polygon fill="none" stroke="#000000" stroke-dasharray="1,5" points="2026.5,-273 1829.5,-273 1829.5,-237 2026.5,-237 2026.5,-273"/>
<text text-anchor="middle" x="1928" y="-251.3" font-family="Times,serif" font-size="14.00" fill="#000000">ActiveStorage::Blob::Analyzable</text>
</g>
<!-- ActiveStorage::Blob::Representable -->
<g id="node14" class="node">
<title>ActiveStorage::Blob::Representable</title>
<polygon fill="none" stroke="#000000" stroke-dasharray="1,5" points="2257,-273 2045,-273 2045,-237 2257,-237 2257,-273"/>
<text text-anchor="middle" x="2151" y="-251.3" font-family="Times,serif" font-size="14.00" fill="#000000">ActiveStorage::Blob::Representable</text>
</g>
<!-- ActiveStorage::Blob::Identifiable -->
<g id="node15" class="node">
<title>ActiveStorage::Blob::Identifiable</title>
<polygon fill="none" stroke="#000000" stroke-dasharray="1,5" points="2472.5,-273 2275.5,-273 2275.5,-237 2472.5,-237 2472.5,-273"/>
<text text-anchor="middle" x="2374" y="-251.3" font-family="Times,serif" font-size="14.00" fill="#000000">ActiveStorage::Blob::Identifiable</text>
</g>
<!-- ActiveStorage::Filename -->
<g id="node16" class="node">
<title>ActiveStorage::Filename</title>
<polygon fill="none" stroke="#000000" points="2643,-273 2491,-273 2491,-237 2643,-237 2643,-273"/>
<text text-anchor="middle" x="2567" y="-251.3" font-family="Times,serif" font-size="14.00" fill="#000000">ActiveStorage::Filename</text>
</g>
<!-- ActiveSupport::CurrentAttributes -->
<g id="node17" class="node">
<title>ActiveSupport::CurrentAttributes</title>
<ellipse fill="none" stroke="#000000" cx="1041" cy="-255" rx="128.8774" ry="18"/>
<text text-anchor="middle" x="1041" y="-251.3" font-family="Times,serif" font-size="14.00" fill="#000000">ActiveSupport::CurrentAttributes</text>
</g>
<!-- ActiveSupport::CurrentAttributes&#45;&gt;ActiveStorage::Current -->
<g id="edge7" class="edge">
<title>ActiveSupport::CurrentAttributes&#45;&gt;ActiveStorage::Current</title>
<path fill="none" stroke="#000000" d="M1041,-236.6262C1041,-220.2161 1041,-196.3202 1041,-180.0192"/>
</g>
</g>
</svg>
